/* XPM */
const char * logo_xpracman_light_xpm[] = {
"128 128 2 1",
" 	c None",
".	c #FFFFFF",
"                                                                                                                                ",
"                                                                                                                                ",
"                                                                                                                                ",
"                                                                                                                                ",
"                                                                                                                                ",
"                                                                                                                                ",
"                                                                                                                                ",
"                                                                                                                                ",
"                                                                                                                                ",
"                                                                                                                                ",
"                                                                                                                                ",
"                                                                                                                                ",
"                                                                    ..                                                          ",
"                                                .                  ..                                                           ",
"                                                .                 ..                                                            ",
"                                                ..               ..                                                             ",
"                                                 .               .                                                              ",
"                                                 .               .                                                              ",
"                                                  .              .                                                              ",
"                                                  .                                                                             ",
"                                                  .                                                                             ",
"                                                  .                                                                             ",
"                                                  .                                   ....                                      ",
"                                                  .                                ....                                         ",
"                                                                                  .                                             ",
"                                                                               ....                                             ",
"                                                                              .                                                 ",
"                                                                              .                                                 ",
"                                                                             ..                                                 ",
"                                                                             .                                                  ",
"                                               ... ...........                                                                  ",
"                               ...          ....  ..          .....                                                             ",
"                       .........           ..                      ...                                                          ",
"                                          ..                          ...                                                       ",
"                                         ..                              ..                                                     ",
"                                        ..                                 .                                                    ",
"                                        .                                   .                                                   ",
"                                        .                                    .                                                  ",
"                                        .                                     .                                                 ",
"                                        .                                     .                                                 ",
"                                        .                                      .                                                ",
"                                        .                                      .       .                                        ",
"                                         .                                    ..        .........                               ",
"                                         .                                    ..                 .........                      ",
"                                          .                                   ..                                                ",
"                                          .                                  ..                                                 ",
"                                           .                                ..                                                  ",
"                                            .                              ..                                                   ",
"                                             .                            .         .                                           ",
"                                          .  .                           .           .                                          ",
"                                        ...   .                         .             .                                         ",
"                                       ..      .                      ...              .                                        ",
"                                      ..       .                     ..                 .                                       ",
"                                    ...         ..                  ..                   .                                      ",
"                                  ...            .                 ..                    .                                      ",
"                                 ..               .               ..                      .                                     ",
"                                ..                .               ..                                                            ",
"                                                   .             .                                                              ",
"                                                    .            .                                                              ",
"                                                    .            .                                                              ",
"                                                     .           .                                                              ",
"                                                     .           .                                                              ",
"                                                      .          .                                                              ",
"                                                      .           .                                                             ",
"                                                      .           .                                                             ",
"                                                      .            .                                                            ",
"                                                      .             .                                                           ",
"                                                      .             .                                                           ",
"                                                     ..              .                                                          ",
"                                                     .               .                                                          ",
"                                                     .               .                                                          ",
"                                                     .               .                                                          ",
"                                                     .               .                                                          ",
"                                                     .                                                                          ",
"                                                     .                                                                          ",
"                                                     .                 ..                                                       ",
"                                                                     ...                                                        ",
"                                                  ......          ....                                                          ",
"                                                        ...........                                                             ",
"                                                                                                                                ",
"                                                    ..         .......                                                          ",
"                                                     ...........                                                                ",
"                                                                                                                                ",
"                                                      .............                                                             ",
"                                                                                                                                ",
"                                                                    ...                                                         ",
"                                                        ..   ........                                                           ",
"                                                          ....                                                                  ",
"                                                                                                                                ",
"                                                                                                                                ",
"                                                                                                                                ",
"                                                                                                                                ",
"                                                                                                                                ",
"                                                                                                                                ",
"                                                                                                                                ",
"                         .... ..... .......                                  ....   ....                                        ",
"                        ..... ..... ........                                 ....   ....                                        ",
"                         ...  ...    .. .....             .....      .......  ...  ....   .....                                 ",
"                          ......     ..   ... .........  .......    ........ ..........  .......  .........                     ",
"                          .....     ...   ... .........  ... ...   ....  ... ..........  ... ...  .........                     ",
"                           ...      ........   ....      .......  ...    ... .. ......   .......   ...   ..                     ",
"                          ....      .......    ...      ........  ...    ..  .. ... ..  ........   ...   ..                     ",
"                         ......     ..         ..      ....  ...  ..        ... ... .. ....  ...   ..   ...                     ",
"                        ...  ...    ..         ..      ...  ...   ...    .. ..  .. ... ...  ...    ..   ...                     ",
"                      ..... ..... ......    ........   .......... .............. ..................... .....                    ",
"                      ..... ..... ......    ........   .........   ............. ............... ...........                    ",
"                                                         ..          ...                 ..                                     ",
"                                                                                                                                ",
"                                                                                                                                ",
"                                                                                                                                ",
"                                                                                                                                ",
"                                                                                                                                ",
"                                                                                                                                ",
"                                                                                                                                ",
"                                                                                                                                ",
"                                                                                                                                ",
"                                                                                                                                ",
"                                                                                                                                ",
"                                                                                                                                ",
"                                                                                                                                ",
"                                                                                                                                ",
"                                                                                                                                ",
"                                                                                                                                ",
"                                                                                                                                ",
"                                                                                                                                ",
"                                                                                                                                ",
"                                                                                                                                ",
"                                                                                                                                "};
