/* XPM */
const char * logo_xpracman_dark_xpm[] = {
"128 128 3 1",
" 	c None",
".	c #3A4E77",
"+	c #628CE0",
"                                                                                                                                ",
"                                                                                                                                ",
"                                                                                                                                ",
"                                                                                                                                ",
"                                                                                                                                ",
"                                                                                                                                ",
"                                                                                                                                ",
"                                                                                                                                ",
"                                                                                                                                ",
"                                                                                                                                ",
"                                                                                                                                ",
"                                                                     ..                                                         ",
"                                                 .                  ..                                                          ",
"                                                 .                 ..                                                           ",
"                                                 ..               ..                                                            ",
"                                                  .               .                                                             ",
"                                                  .               .                                                             ",
"                                                   .              .                                                             ",
"                                                   .                                                                            ",
"                                                   .                                                                            ",
"                                                   .                                                                            ",
"                                                   .                                   ....                                     ",
"                                                   .                                ....                                        ",
"                                                                                   .                                            ",
"                                                                                ....                                            ",
"                                                                               .                                                ",
"                                                                               .                                                ",
"                                                                              ..                                                ",
"                                                                              .                                                 ",
"                                                ... ...........                                                                 ",
"                                ...          ....  ..          .....                                                            ",
"                        .........           ..                      ...                                                         ",
"                                           ..                          ...                                                      ",
"                                          ..                              ..                                                    ",
"                                         ..                                 .                                                   ",
"                                         .                                   .                                                  ",
"                                         .                                    .                                                 ",
"                                         .                                     .                                                ",
"                                         .                                     .                                                ",
"                                         .                                      .                                               ",
"                                         .                                      .       .                                       ",
"                                          .                                    ..        .........                              ",
"                                          .                                    ..                 .........                     ",
"                                           .                                   ..                                               ",
"                                           .                                  ..                                                ",
"                                            .                                ..                                                 ",
"                                             .                              ..                                                  ",
"                                              .                            .         .                                          ",
"                                           .  .                           .           .                                         ",
"                                         ...   .                         .             .                                        ",
"                                        ..      .                      ...              .                                       ",
"                                       ..       .                     ..                 .                                      ",
"                                     ...         ..                  ..                   .                                     ",
"                                   ...            .                 ..                    .                                     ",
"                                  ..               .               ..                      .                                    ",
"                                 ..                .               ..                                                           ",
"                                                    .             .                                                             ",
"                                                     .            .                                                             ",
"                                                     .            .                                                             ",
"                                                      .           .                                                             ",
"                                                      .           .                                                             ",
"                                                       .          .                                                             ",
"                                                       .           .                                                            ",
"                                                       .           .                                                            ",
"                                                       .            .                                                           ",
"                                                       .             .                                                          ",
"                                                       .             .                                                          ",
"                                                      ..              .                                                         ",
"                                                      .               .                                                         ",
"                                                      .               .                                                         ",
"                                                      .               .                                                         ",
"                                                      .               .                                                         ",
"                                                      .                                                                         ",
"                                                      .                                                                         ",
"                                                      .                 ..                                                      ",
"                                                                      ...                                                       ",
"                                                   ......          ....                                                         ",
"                                                         ...........                                                            ",
"                                                                                                                                ",
"                                                     ..         .......                                                         ",
"                                                      ...........                                                               ",
"                                                                                                                                ",
"                                                       .............                                                            ",
"                                                                                                                                ",
"                                                                     ...                                                        ",
"                                                         ..   ........                                                          ",
"                                                           ....                                                                 ",
"                                                                                                                                ",
"                                                                                                                                ",
"                                                                                                                                ",
"                                                                                                                                ",
"                                                                                                                                ",
"                                                                                                                                ",
"                                                                                                                                ",
"                                                                                                                                ",
"                                                                                                                                ",
"                         ++++ ++++  ++++++++                                 ++++   ++++                                        ",
"                          ++   ++    ++   ++               +++         ++  +  +++   +++    +++                                  ",
"                          ++  ++     ++    +  ++++++++   ++++++      +++++++  +++  +++   ++++++    +++++++                      ",
"                           ++++      +    ++    ++++ ++       ++    ++   ++   + + ++ +        ++    +++++++                     ",
"                           +++       ++++++     ++         +++++   ++     +  ++ +++ ++     +++++    ++   ++                     ",
"                           +++      ++++++      +       +++++++    +         ++ +++ ++  +++++++    ++    ++                     ",
"                          ++++      ++         ++       ++    +   ++         +  ++  ++  ++    +    ++    ++                     ",
"                         ++  ++     +          ++      ++    ++   ++         +      +  ++    ++    ++    +                      ",
"                        ++   +++   +++         ++      ++  ++++    ++   +++ ++     +++ ++  ++++    ++   ++                      ",
"                      +++++ +++++ ++++++    ++++++++    ++++++++    ++++++ ++++   ++++  ++++++++ +++++ ++++                     ",
"                                                                                                                                ",
"                                                                                                                                ",
"                                                                                                                                ",
"                                                                                                                                ",
"                                                                                                                                ",
"                                                                                                                                ",
"                                                                                                                                ",
"                                                                                                                                ",
"                                                                                                                                ",
"                                                                                                                                ",
"                                                                                                                                ",
"                                                                                                                                ",
"                                                                                                                                ",
"                                                                                                                                ",
"                                                                                                                                ",
"                                                                                                                                ",
"                                                                                                                                ",
"                                                                                                                                ",
"                                                                                                                                ",
"                                                                                                                                ",
"                                                                                                                                ",
"                                                                                                                                "};
