/* XPM */
const char * xpracman_logo_xpm[] = {
"60 20 200 2",
"  	c None",
". 	c #5252B2",
"+ 	c #4F4FC4",
"@ 	c #4B4BD9",
"# 	c #4B4BDD",
"$ 	c #4C4CE4",
"% 	c #5151E5",
"& 	c #4343C0",
"* 	c #232334",
"= 	c #333354",
"- 	c #6666D2",
"; 	c #6F6FF4",
"> 	c #6B6BFB",
", 	c #6A6AFF",
"' 	c #6C6CFF",
") 	c #6A6AF9",
"! 	c #5D5DF2",
"~ 	c #3B3BC3",
"{ 	c #232323",
"] 	c #3B3B44",
"^ 	c #9696A7",
"/ 	c #58585D",
"( 	c #4F4F81",
"_ 	c #7F7FEB",
": 	c #7777E5",
"< 	c #7272E2",
"[ 	c #7878F5",
"} 	c #7676F4",
"| 	c #7676F5",
"1 	c #7575FD",
"2 	c #6969F5",
"3 	c #5252C5",
"4 	c #282828",
"5 	c #313131",
"6 	c #3F3F53",
"7 	c #A9A9B8",
"8 	c #656569",
"9 	c #59597E",
"0 	c #5F5F95",
"a 	c #434368",
"b 	c #515187",
"c 	c #7171C8",
"d 	c #5B5B9B",
"e 	c #585897",
"f 	c #6E6ECE",
"g 	c #7575FF",
"h 	c #6666ED",
"i 	c #5454C2",
"j 	c #262626",
"k 	c #3B3B3B",
"l 	c #6E6EC2",
"m 	c #2E2E40",
"n 	c #5B5B73",
"o 	c #5A5A78",
"p 	c #9696CB",
"q 	c #535381",
"r 	c #44446A",
"s 	c #7878D8",
"t 	c #7E7EDC",
"u 	c #69699E",
"v 	c #4B4B68",
"w 	c #494975",
"x 	c #8181FC",
"y 	c #6B6BD1",
"z 	c #4D4D87",
"A 	c #434388",
"B 	c #1D1D1D",
"C 	c #1F1F1F",
"D 	c #353535",
"E 	c #7373CA",
"F 	c #373752",
"G 	c #6F6FBB",
"H 	c #7B7BE9",
"I 	c #8686F2",
"J 	c #525284",
"K 	c #56568D",
"L 	c #8282F6",
"M 	c #5D5D9E",
"N 	c #3A3A54",
"O 	c #2F2F3F",
"P 	c #3D3D59",
"Q 	c #8585ED",
"R 	c #4C4C7D",
"S 	c #393959",
"T 	c #161616",
"U 	c #2D2D2D",
"V 	c #595991",
"W 	c #7676CB",
"X 	c #3A3A5E",
"Y 	c #7272D9",
"Z 	c #7474FF",
"` 	c #7777F4",
" .	c #51518C",
"..	c #565696",
"+.	c #8080F7",
"@.	c #545474",
"#.	c #696990",
"$.	c #424260",
"%.	c #8585E0",
"&.	c #434367",
"*.	c #6868B3",
"=.	c #6161D1",
"-.	c #2E2E2E",
";.	c #2A2A2A",
">.	c #191919",
",.	c #2C2C2C",
"'.	c #4C4C4C",
").	c #303030",
"!.	c #3B3B5A",
"~.	c #7B7BDC",
"{.	c #545499",
"].	c #7272E7",
"^.	c #7272FF",
"/.	c #7474FA",
"(.	c #6969CD",
"_.	c #6A6AD2",
":.	c #7878FC",
"<.	c #7272D7",
"[.	c #4E4E87",
"}.	c #535387",
"|.	c #48486E",
"1.	c #7B7BCA",
"2.	c #54548A",
"3.	c #5C5C9A",
"4.	c #5757DD",
"5.	c #565656",
"6.	c #333333",
"7.	c #2B2B2B",
"8.	c #202020",
"9.	c #7171FA",
"0.	c #7575F4",
"a.	c #7373FD",
"b.	c #7171FF",
"c.	c #7474FE",
"d.	c #7676FE",
"e.	c #7878F7",
"f.	c #7B7BF3",
"g.	c #9191DC",
"h.	c #9E9ED7",
"i.	c #7B7BD6",
"j.	c #505088",
"k.	c #414192",
"l.	c #2F2F2F",
"m.	c #515151",
"n.	c #5C5C5C",
"o.	c #434343",
"p.	c #3A3A3A",
"q.	c #6E6EFF",
"r.	c #8D8DFF",
"s.	c #C5C5FE",
"t.	c #CECEFD",
"u.	c #9292FB",
"v.	c #6767D7",
"w.	c #4747A0",
"x.	c #424242",
"y.	c #1C1C1C",
"z.	c #7070FF",
"A.	c #8D8DFE",
"B.	c #DBDBFE",
"C.	c #CDCDFD",
"D.	c #8282EE",
"E.	c #4B4BC2",
"F.	c #272727",
"G.	c #5D5D5D",
"H.	c #404040",
"I.	c #373737",
"J.	c #5D5DFF",
"K.	c #6767FE",
"L.	c #9F9FFE",
"M.	c #C7C7FE",
"N.	c #D9D9FE",
"O.	c #DADAFE",
"P.	c #A0A0F7",
"Q.	c #6363C2",
"R.	c #4D4DA6",
"S.	c #242424",
"T.	c #4848E9",
"U.	c #5D5DF9",
"V.	c #AAAAFE",
"W.	c #CACAFE",
"X.	c #D2D2FD",
"Y.	c #B6B6F7",
"Z.	c #5959E8",
"`.	c #4646C1",
" +	c #555555",
".+	c #3C3C3C",
"++	c #363636",
"@+	c #3636FB",
"#+	c #5959FF",
"$+	c #6868FF",
"%+	c #7878FF",
"&+	c #7272D8",
"*+	c #6666B6",
"=+	c #383838",
"-+	c #1919F9",
";+	c #2929E2",
">+	c #1A1AED",
",+	c #3B3BBF",
"'+	c #1B1B1B",
")+	c #222222",
"                                                                                                                        ",
"                                                                                                                        ",
"                                        . + @ # $ % @ &                                                                 ",
"                                    * = - ; > , ' ' ) ! ~                                                               ",
"                              {   ] ^ / ( _ : < [ } | 1 2 3                                                             ",
"                        4   5     6 7 8 9 0 a b c d e f g h i                                                           ",
"                        j 5 k   l m n o p q r s t u v w x y z A     B                                                   ",
"                          C D   E F G H I J K L M N O P Q R F S { j T                                                   ",
"                          U U V W X Y Z `  ...+.R @.#.$.%.&.*.=.  5 -.-.  ;.>.                                          ",
"                        ,.'.).!.~.{.].^./.(._.:.<.[.}.|.1.2.3.4.  D 5.6.  7.8.                                          ",
"                        {       9.0.a.b.^.c.Z ^.d.e.f.g.h.i.j.k.  l.m.7.n.o.p.                                          ",
"                                q.^.b.b.b.b.b.b.b.^.r.s.t.u.v.w.  7.  ).4 n.x.    4 y.                                  ",
"                                  z.b.b.b.b.b.b.g A.s.B.C.D.E.          7.  F.    G.H.I.                                ",
"                                  J.K.z.b.b.b.b.L.M.N.O.P.Q.R.              F.  ,.o.6.p.  S.l.                          ",
"                                    T.U.b.b.b.b.V.W.X.Y.Z.`.                    I. +o..+  F.++5                         ",
"                                      @+#+$+b.b.%+:.&+*+                            =+U   U     C                       ",
"                                            -+;+>+,+                                      ;.    '+                      ",
"                                                                                                '+                      ",
"                                                                                                )+                      ",
"                                                                                                                        "};
