/* XPM */
const char * xpracman_float_xpm[] = {
"116 20 199 2",
"  	c None",
". 	c #4F79EA",
"+ 	c #4C74E0",
"@ 	c #4970DA",
"# 	c #4D76E4",
"$ 	c #4F79E9",
"% 	c #4A71DB",
"& 	c #4B73DF",
"* 	c #314B92",
"= 	c #0C1223",
"- 	c #4C75E3",
"; 	c #3F60BB",
"> 	c #162140",
", 	c #0A0F1D",
"' 	c #4D76E5",
") 	c #162242",
"! 	c #24376A",
"~ 	c #4468C9",
"{ 	c #486FD7",
"] 	c #4F78E9",
"^ 	c #1B2A51",
"/ 	c #2F488C",
"( 	c #141E3B",
"_ 	c #4A71DA",
": 	c #0E1529",
"< 	c #000000",
"[ 	c #4E78E8",
"} 	c #496FD7",
"| 	c #0C1224",
"1 	c #4B73DE",
"2 	c #4E77E7",
"3 	c #19274B",
"4 	c #4C74E1",
"5 	c #4D75E3",
"6 	c #4E77E6",
"7 	c #4E78E7",
"8 	c #324D96",
"9 	c #2B4280",
"0 	c #456ACD",
"a 	c #4E78E9",
"b 	c #3D5EB5",
"c 	c #131E3A",
"d 	c #1C2B52",
"e 	c #4469CB",
"f 	c #213362",
"g 	c #4C75E2",
"h 	c #4A72DC",
"i 	c #3F61BB",
"j 	c #4264C2",
"k 	c #4366C6",
"l 	c #4D76E3",
"m 	c #3E5FB9",
"n 	c #486ED5",
"o 	c #35529F",
"p 	c #466BCF",
"q 	c #4B72DD",
"r 	c #020307",
"s 	c #4D77E6",
"t 	c #314B90",
"u 	c #486FD6",
"v 	c #4164C1",
"w 	c #3856A7",
"x 	c #476CD2",
"y 	c #4970D9",
"z 	c #2E4687",
"A 	c #010204",
"B 	c #4B74E0",
"C 	c #1B294F",
"D 	c #3A5AAD",
"E 	c #4469CA",
"F 	c #3D5DB4",
"G 	c #131D38",
"H 	c #0A101E",
"I 	c #324D95",
"J 	c #293F79",
"K 	c #04060B",
"L 	c #30498E",
"M 	c #0A0F1C",
"N 	c #010103",
"O 	c #020306",
"P 	c #25396E",
"Q 	c #070B15",
"R 	c #0D1427",
"S 	c #1D2C55",
"T 	c #304A8F",
"U 	c #314C93",
"V 	c #182547",
"W 	c #172345",
"X 	c #223466",
"Y 	c #080C17",
"Z 	c #000101",
"` 	c #03050A",
" .	c #466CD1",
"..	c #1A274C",
"+.	c #090E1B",
"@.	c #15213F",
"#.	c #4971DA",
"$.	c #2A407D",
"%.	c #4163BF",
"&.	c #04060D",
"*.	c #476DD3",
"=.	c #334F98",
"-.	c #030509",
";.	c #1E2E5A",
">.	c #25386D",
",.	c #233669",
"'.	c #1B2A52",
").	c #466CD0",
"!.	c #15203D",
"~.	c #1C2A52",
"{.	c #4A72DD",
"].	c #304A90",
"^.	c #273B72",
"/.	c #1E2E59",
"(.	c #213261",
"_.	c #223465",
":.	c #203160",
"<.	c #4C75E1",
"[.	c #0A101F",
"}.	c #36529F",
"|.	c #050810",
"1.	c #3F60BA",
"2.	c #2C4382",
"3.	c #1F2F5B",
"4.	c #3B5AAE",
"5.	c #314B91",
"6.	c #05070E",
"7.	c #486ED4",
"8.	c #2B4281",
"9.	c #090D1A",
"0.	c #4366C7",
"a.	c #3E5FB8",
"b.	c #070B16",
"c.	c #4266C5",
"d.	c #35529E",
"e.	c #121C37",
"f.	c #010102",
"g.	c #4063BF",
"h.	c #3A59AC",
"i.	c #3B5BAF",
"j.	c #4367C7",
"k.	c #334E98",
"l.	c #000001",
"m.	c #334E97",
"n.	c #3653A1",
"o.	c #3E60B9",
"p.	c #3C5DB3",
"q.	c #4569CC",
"r.	c #080D19",
"s.	c #24386C",
"t.	c #2D4586",
"u.	c #05070D",
"v.	c #314C92",
"w.	c #060911",
"x.	c #060A13",
"y.	c #4367C8",
"z.	c #10182F",
"A.	c #060912",
"B.	c #3E5FB7",
"C.	c #1C2B54",
"D.	c #2E4789",
"E.	c #3C5CB1",
"F.	c #0D1428",
"G.	c #4B74DF",
"H.	c #25386C",
"I.	c #3D5EB6",
"J.	c #04060C",
"K.	c #2B427F",
"L.	c #213363",
"M.	c #0C1324",
"N.	c #486DD4",
"O.	c #131E39",
"P.	c #05080F",
"Q.	c #090F1C",
"R.	c #3957A8",
"S.	c #04070E",
"T.	c #34509A",
"U.	c #090E1C",
"V.	c #2E4688",
"W.	c #101931",
"X.	c #0E162A",
"Y.	c #293F7A",
"Z.	c #4970D8",
"`.	c #4265C3",
" +	c #466BD0",
".+	c #476DD2",
"++	c #3755A5",
"@+	c #273C74",
"#+	c #4061BD",
"$+	c #1C2B53",
"%+	c #1A294E",
"&+	c #263A70",
"*+	c #070A14",
"=+	c #4265C4",
"-+	c #4063C0",
";+	c #101930",
">+	c #223464",
",+	c #172343",
"'+	c #0E152A",
"                                                                                                                                                                                                                                        ",
"    . . . .       . . . .         . . . . . . .                                                                                               . . .             . . . +                                                                 ",
"  . . . . . @   . . . . .       . . . . . . . . . #                                                                                         . . . . #         $ . . . %                                                                 ",
"      & . * =     - . ; > ,         ' . > > ) ! ~ . {                                                                                         . . . ] ^       . . . / (                                                                 ",
"        ] _ : <   [ } | <           # . < < <     1 2 3     [ . . .     4 2 ] 5 6           2 $ . . 2 }                   ] 2 7 2   _ #         . % ] 8 <   # . 1 . 9 <       7 6 . . . 6 0           . . .     # a # [                 ",
"        0 . b c # ' d <             6 . < <       e . f     2 . . . g h . 6 h . $ i     [ . . h j k l . m             $ . . 5 n 5 [ 2 .         . o p q r   s # t . 9 <     [ . ] u v ~ [ [ w         . . . s ] [ % ' . x               ",
"          y $ _ . z A <             2 . <         B . C       D E . 6 . F G H I J K       g L M N O 3 # # :         2 . 1 P | Q R / 7 . S       . T U . V W 2 w 9 . 9 <     4 4 X Y Z ` P [  .          _ . $ v ..+.@.#.$ $.            ",
"            [ . %.&.<               [ . <       1 $ } Q         *.. $ =.-.<                   ;.>.,.'.).. !.        . . ~.< <       {.. S <     . ].V . I ^.$ /.9 . 9 <           (.>._.:.<.1 [.        . . }.|.< <   1.. 2.            ",
"            ] . @ R <               [ . . . . . . # 3.<         % . 4.-.<                 4 6 . . . . . . G <       . e < <           . ^       . 5.6.7.g q _ Y 8.. 9 <       B a . . . . . q 9.        . . ! <       0.. t <           ",
"          . ' a.. a.b.              [ .  . .x c.d.e.f.          B . 9 < <               . . g g.h.i.j.6 . e.<     g . k.<                       . 5.l.m.. . n.< 2.. 9 <     . . {.o.h.p.q.] q r.        . . s.<         . 5.<           ",
"        $ $ t.u.k $ v.              [ . w.w.x.O <               4 . 9 <               [ . y.z.A < < A.E . e.<       . B.<                       . 5.< s.. . C.< D.. 9 <   ' . E., Z < < F.G.q r.        . . H.<         . * <           ",
"      [ . I.J.< 3 4 6 K.            7 . < <                     4 . 9 <               . . L.< <       + . G <       [ 2 M.                      . 5.<   4.* |.< N.. 9 <   $ 2 ( < <       2 q 9.        . . H.<         . 5.<           ",
"      . h O.P.    F . + ~.          2 . +.=                     & . / Q.              ' . R.S.      . . . 3 |       - . k S         2 . 5       . T.U.          p . / Q.  4 . V.A     # . . & W.X.      . . Y.,         . T.H           ",
"  $ . . 2 1 J   g 5 . . g Z.    . . . . 1 & 4               . . $ . # 1 + 6 1           ] $ p `.s . 7 ' . + _         % . 6 % 0 2 $ .  +S   5 ] . ' 1  +    g g 6 . # 1     6 ] c.q.2 . # [ $ & .+   +. . . 5 1     . ] . ' 1 ++        ",
"  $ . _ n n @+  . . + n n 4.    . . + n n n n               . . h n n n n n c.            B ' $ g #+$+I.n n ).%+        y.1 2 ] - ~ &+*+<   . . h n n =+    . . # n n n <     B 2 a + i.3 E n n j.  -+. # n n n ;+  . . n n n >+        ",
"        < < <         < < <           < < < <                     < < < < <                   ^ : N < < < < <               :.,+'+N <             < < <           < < <           V = < < < < < <         < < <         < < < <         ",
"                                                                                                                                                                                                                                        ",
"                                                                                                                                                                                                                                        ",
"                                                                                                                                                                                                                                        ",
"                                                                                                                                                                                                                                        "};
