/* XPM */
const char *agenda_xpm[] = {
/* width height ncolors chars_per_pixel */
"22 22 4 1",
/* colors */
"  c #000000",
". c #808080",
"X c none",
"o c #0000FF",
/* pixels */
"XXXXXXXXXXXXXXXXXXXXXX",
"X                  XXX",
"X oooooooooooooooo XXX",
"X oooooooooooooooo XXX",
"X XXX.XXX.XXX.XXX. ..X",
"X XXX.ooo.XXX.XXX. ..X",
"X XXX.ooo.XXX.ooo. ..X",
"X XXX.ooo.XXX.ooo. ..X",
"X ooo.XXX.XXX.ooo. ..X",
"X ooo.XXX.ooo.XXX. ..X",
"X ooo.XXX.ooo.ooo. ..X",
"X XXX.ooo.ooo.ooo. ..X",
"X XXX.ooo.XXX.ooo. ..X",
"X XXX.ooo.XXX.XXX. ..X",
"X ooo.XXX.ooo.XXX. ..X",
"X ooo.XXX.ooo.XXX. ..X",
"X ooo.XXX.ooo.XXX. ..X",
"X XXX.XXX.XXX.XXX. ..X",
"X                  ..X",
"XXXX.................X",
"XXXX.................X",
"XXXXXXXXXXXXXXXXXXXXXX"
};
