/* XPM */
const char *anticlockwise_xpm[]={
"22 22 30 1",
". c None",
"d c #000000",
"s c #020202",
"h c #060d03",
"v c #070d04",
"r c #071003",
"p c #081204",
"l c #0b1b05",
"i c #0e2005",
"u c #0f1c09",
"x c #102009",
"g c #102806",
"w c #12230a",
"n c #122b06",
"B c #13200c",
"A c #13250a",
"t c #15260e",
"y c #15270c",
"q c #173807",
"j c #1c4408",
"m c #1c4508",
"z c #234413",
"o c #275e0d",
"# c #275f0b",
"e c #2b6a0e",
"f c #35691b",
"c c #58a8ff",
"a c #a8dcff",
"k c #ecf3e8",
"b c #f5f9f4",
"......................",
"......................",
"...........#####......",
".........##aaaaa##....",
".......##baaccccaa#...",
".#....#baaccccccccad..",
".##..#bacccaaaaacccad.",
".#a##bacccaddddefacad.",
".#aaaacccdg....hiaccaj",
".#kacccad........lmcaj",
".#kaccad..........noaj",
".#acccaj..........pqj.",
".#aaaaaaj.........rjd.",
".#ddddddds........tj..",
".................ujv..",
"................wjx...",
"...............yzA....",
"..............Bjd.....",
"............ddd.......",
"......................",
"......................",
"......................"};
