/* XPM */
const char *appearance_xpm[] = {
/* width height ncolors chars_per_pixel */
"23 22 117 2",
/* colors */
"   c #AA1A2A",
" . c #A2DAEE",
" X c #92D6F2",
" o c #62BA66",
" O c #6AAA6E",
" + c #4E8AA2",
" @ c #7E926E",
" # c #1686BA",
" $ c #D2CAA6",
" % c #76CAEA",
" & c #AEDEAA",
" * c #E6B6A6",
" = c #AADEA6",
" - c #CEC6A2",
" ; c #E2AEA2",
" : c #CAC29E",
" > c #BEBEA6",
" , c #1272A2",
" < c #CE3A46",
" 1 c #96BAA6",
" 2 c #127A7A",
" 3 c #F2EEE6",
" 4 c #EEEEE2",
" 5 c #EEEAE2",
" 6 c #266666",
" 7 c #DE7A76",
" 8 c #2E9ACA",
" 9 c #36AAAA",
" 0 c #DED6BE",
" q c #02466A",
" w c #DAD6BA",
" e c #423E32",
" r c #868A6E",
" t c #BA6A66",
" y c #3E3A2E",
" u c #827E6A",
" i c #DE464E",
" p c #C2C2A2",
" a c #3E768A",
" s c #C2A28E",
" d c #66B6AA",
" f c #EAE6D6",
" g c #92B286",
" h c #A69E86",
" j c #46B6B2",
" k c #E6E2D2",
" l c #8EAE82",
" z c #BEE6E6",
" x c #E2DECE",
" c c #8A3236",
" v c #9E967E",
" b c #F26A6E",
" n c #9A9A7A",
" m c #CAE2CA",
" M c #36A6A2",
" N c #928A72",
" B c #8AD2EE",
" V c #5AAE62",
" C c #D6CAAE",
" Z c #EE4E56",
" A c #FAAAAA",
" S c #CAC2A2",
" D c #4EA256",
" F c #CABEA2",
" G c #9AD69A",
" H c #C2BA9A",
" J c #BEBA96",
" K c #BEB696",
" L c #F6F2EE",
" P c #BAB292",
" I c #B6A68E",
" U c #B29E8A",
" Y c #92AA92",
" T c #B62232",
" R c #E2DEC6",
" E c #32663A",
" W c #E2DAC6",
" Q c #DEDAC2",
" ! c #2692C6",
" ~ c #3E3A32",
" ^ c #3A362E",
" / c #323226",
" ( c #768262",
" ) c #CEC29E",
" _ c #2A261E",
" ` c #66C2C2",
" ' c #86AEBA",
" ] c #62C2BE",
" [ c #82AEB6",
" { c #585858",
" } c #8AAE96",
" | c #EAE6DA",
".  c #B68E86",
".. c #126262",
".X c #9AA27E",
".o c #629AAA",
".O c #AE8A7E",
".+ c #424242",
".@ c #D2CEC2",
".# c #DAD2B6",
".$ c #D6CEB2",
".% c #BED2AE",
".& c #52A65E",
".* c #2E8E8A",
".= c #76CECA",
".- c #262626",
".; c #C2BA9E",
".: c #1E1E1E",
".> c #368242",
"., c #065A8A",
".< c #EAE2D2",
".1 c #E6E2CE",
".2 c #060606",
".3 c #E6DECE",
".4 c #E2DECA",
".5 c #020202",
".6 c #4A4A42",
/* pixels */
" { { { { { { { { { { { { { { { { { { { { { { {",
" { { { {.5.:.5 { { { { { { { { { { { { { { { {",
" { { {.5 L 5 4.6 { { { { { { { {.5.5.5 { { { {",
" { {.5 L 3 3 3 4.5 { { { { { {.5.#.# K.5 { { {",
" {.- L 3 3 3 5 5.5 { { { { {.5.3.# C C K.5 { {",
" {.5 3 -.5.5 - | 4.5 { { { {.5 0.#.$ C C.5 { {",
".5 L |.5 { {.5 - 4.5 { { {.5.3 Q ' # > C h.5 {",
".5 | |.5 { { {.5 R R.5 { {.5 Q [ . B #.o K.5 {",
".5.< f.5 { { {.5 R R R.5.5 R Q # X % 8 , - ^ {",
".5.1.< -.5 { {.5 R R R R R W Q + ! ! , q -.5 {",
".5.4.3.4.@.2.+ x.< R R.4 Q Q Q.; a., q u -.5 {",
".5 Q.4.3.3 k.< k.1.3 R R W Q Q W S > H ) -.5 {",
".5 W W.4.4 ; 7 Q W W W W W W W w d 1 ) - K _ {",
".5 p W Q * i   i Q W W W W W w 9.= j } : I.5 {",
" {.5 W W   A A <. .% O.& g >.$ ` z.=.* - e { {",
" {.5 p W   b Z  .O O m & V l Y 2 ] M 6 N.5 { {",
" { { ~ $ t T   c U.> G = D @ :.* 2.. N / { { {",
" { { {.5 $ s c I F.> o o.> ( : P v v I.5 { { {",
" { { { {.5 $ $ $ - - E E E r : : : I.5 { { { {",
" { { { { { ^ $ $ - - J.X n : : I /.5 { { { { {",
" { { { { { {.5 ~ I - - - - I y.5 { { { { { { {",
" { { { { { { { {.5.5.5.5.5.5 { { { { { { { { {"
};
