/* XPM */
const char *clockwise_xpm[]={
"22 22 31 1",
". c None",
"g c #000000",
"h c #020202",
"l c #060d03",
"v c #070d04",
"t c #071003",
"s c #081204",
"o c #0b1b05",
"k c #0e2005",
"w c #0f1c09",
"x c #102009",
"m c #102806",
"y c #12230a",
"q c #122b06",
"C c #13200c",
"z c #13250a",
"u c #15260e",
"B c #15270c",
"r c #173807",
"e c #1c4408",
"n c #1c4508",
"A c #234413",
"p c #275e0d",
"# c #275f0b",
"i c #2b6a0e",
"f c #58a8ff",
"a c #a8dcff",
"c c #cde2c1",
"j c #e4ecdf",
"b c #e5eedf",
"d c #f5f9f4",
"......................",
"......................",
"......#####...........",
"....##aabca##.........",
"...#aaaaaaaadee.......",
"..#baafffffaaaag....h.",
".#aaaffaaafffaadg..eg.",
".#.fffiggggafffadgejg.",
"eaafikl....mgaffaaaag.",
"e.ano........gaffaafg.",
"eapq..........gaffffg.",
".ers..........ejfffag.",
".get.........ejfffaag.",
"..eu........hgggggggg.",
"..vew.................",
"...xey................",
"....zAB...............",
".....geC..............",
".......ggg............",
"......................",
"......................",
"......................"};
