/* XPM */
const char *create_xpm[] = {
/* width height ncolors chars_per_pixel */
"22 22 144 2",
/* colors */
"   c #000000",
" . c #FBF7F3",
" X c #F4E3D5",
" o c #D1BDAC",
" O c #F8EEE6",
" + c #D6C8BE",
" @ c #CEB49F",
" # c #C7A081",
" $ c #FAF2EB",
" % c #F9F0EA",
" & c #CFCBC4",
" * c #FEFDFC",
" = c #F6E9DD",
" - c #FAF4EE",
" ; c #F3E0D0",
" : c #F2E0CF",
" > c #CFB8A6",
" , c #F7EBE1",
" < c #C8A488",
" 1 c #FBF6F2",
" 2 c #ECCEB5",
" 3 c #F1DBC7",
" 4 c #D0C8C1",
" 5 c #FDFAF7",
" 6 c #F5E6D8",
" 7 c #EED2BA",
" 8 c #E4E0DB",
" 9 c #F2DDCB",
" 0 c #EAC9AC",
" q c #FEFCFB",
" w c #FDFCFA",
" e c #F6E8DC",
" r c #D2C0B2",
" t c #FBF3EE",
" y c #FAF3ED",
" u c #535353",
" i c #F2DFCE",
" p c #FEFEFE",
" a c #F6EADF",
" s c #857F7A",
" d c #EFD6C1",
" f c #E7C2A2",
" g c #F3E1D2",
" h c #3F3F3F",
" j c #F8EEE4",
" k c #ECECEC",
" l c #393939",
" z c #F5E5D7",
" x c #333333",
" c c #313131",
" v c #E0E0E0",
" b c #DEDEDE",
" n c #F9F0E8",
" m c #C6B8AC",
" M c #F1DCC9",
" N c #292929",
" B c #FDFBF9",
" V c #D6D6D6",
" C c #212121",
" Z c #EED3BC",
" A c #1F1F1F",
" S c #FAF2EC",
" D c #191919",
" F c #C6C6C6",
" G c #131313",
" H c #FCF6F1",
" J c #B4B4B4",
" K c #E9C5A6",
" L c #D8D0CA",
" P c #D0BCAB",
" I c #EADFD5",
" U c #F9EFE7",
" Y c #C9A88D",
" T c #F1DBC8",
" R c #FDFAF8",
" E c #F5E6D9",
" W c #EED2BB",
" Q c #989898",
" ! c #EAC9AD",
" ~ c #F7EADE",
" ^ c #F6E8DD",
" / c #F0D8C3",
" ( c #EFD8C2",
" ) c #D4C4B8",
" _ c #FCF7F3",
" ` c #CDB09A",
" ' c #CCB099",
" ] c #F4E3D4",
" [ c #F1DAC7",
" { c #F5E5D8",
" } c #F9F0E9",
" | c #FEFDFB",
".  c #FDFBFA",
".. c #B8B1A9",
".X c #CBAD94",
".o c #D7CCC4",
".O c #F2DECE",
".+ c none",
".@ c #CFB8A5",
".# c #4C4C4C",
".$ c #FDFDFD",
".% c #C8A487",
".& c #4A4A4A",
".* c #EFD7C1",
".= c #464646",
".- c #FBF6F1",
".; c #424242",
".: c #ECCEB4",
".> c #3E3E3E",
"., c #F8EDE4",
".< c #3A3A3A",
".1 c #E8C5A6",
".2 c #FCF8F5",
".3 c #F4E4D6",
".4 c #E1E1E1",
".5 c #2C2C2C",
".6 c #C9A88E",
".7 c #CEB5A0",
".8 c #262626",
".9 c #F6E8DB",
".0 c #BBB2AB",
".q c #D2C0B1",
".w c #A09B97",
".e c #FAF3EC",
".r c #CBAC93",
".t c #F0EEEC",
".y c #181818",
".u c #FFFEFE",
".i c #C9C9C9",
".p c #FEFEFD",
".a c #F7EADF",
".s c #141414",
".d c #EFD6C0",
".f c #101010",
".g c #FBF5F0",
".h c #F4E1D2",
".j c #0C0C0C",
".k c #F3E1D1",
".l c #ECCDB3",
".z c #080808",
".x c #060606",
".c c #F7ECE2",
".v c #020202",
".b c #EFD8C3",
/* pixels */
".+.+.+.+.+.+.+.+.+.+.+.+.+.+.+.+.+.+.+.+.+.+",
".+.+.+ u.&.;.< c N C.y.f.z    .+.+.+.+.+.+.+",
".+.+.+.# b b b b b b V F J   Q  .+.+.+.+.+.+",
".+.+.+.= b.+.+.+.+.+.+ k.4.s.i Q  .+.+.+.+.+",
".+.+.+ h b.+.+.+.+.+.+.+ k N.+.i Q  .+.+.+.+",
".+.+.+ l b.+.+.+.+.+.+.+.+.> v.+.i Q  .+.+.+",
".+.+.+ x b.+.+.+.+.+.+.+.+ u.> N.s    .+.+.+",
".+.+.+.5 b.+.+.+.+.+.+.+.+.$.t &.. s  .+.+.+",
".+.+.+.8 b.+.+.+.+.+.+.+.+ * 5 8 4.w  .+.+.+",
".+.+.+ A b.+.+.+.+.+.+.+ |.2 t n I.0  .+.+.+",
".+.+.+ D b.+.+.+.+.+.+ q.2 - U , E m  .+.+.+",
".+.+.+ G b.+.+.+.+.u w . y O a E g.q  .+.+.+",
".+.+.+.j b.+.+.+ p.  _ S O.a 6.h 9 P  .+.+.+",
".+.+.+.x b.+.+ p B 1.e., ~ {.k 9 /.@  .+.+.+",
".+.+.+.x b.+.+ p B 1.e., ~ {.k 9 /.@  .+.+.+",
".+.+.+   b.+.p R.- $ j ^ z ; M.b Z @  .+.+.+",
".+.+.+   b.u 5 H $., =.3 ; M ( Z 2 '  .+.+.+",
".+.+.+.v b 5.g %.c e.3 i T d W.: !.r  .+.+.+",
".+.+.+   b.g }.c e X : [.* 7.: ! K Y  .+.+.+",
".+.+.+   b n ,.9 ].O 3.d 7.l 0.1 f.%  .+.+.+",
".+.+.+   L L.o + ) r o >.7 `.X.6 < #  .+.+.+",
".+.+.+                                .+.+.+"
};
