/* XPM */
const char *days_7_xpm[] = {
/* width height ncolors chars_per_pixel */
"22 22 129 2",
/* colors */
"   c #000000",
" . c #FAF7F2",
" X c #0000C0",
" o c #DEDBE7",
" O c #5353AE",
" + c #C3C1DD",
" @ c #0000D7",
" # c #B9B6B2",
" $ c #A6A5D1",
" % c #FBF9F6",
" & c #0000EE",
" * c #BCBAB8",
" = c #BBBAB7",
" - c #3E3D99",
" ; c #FEFDFC",
" : c #00009B",
" > c #F7F2EB",
" , c #0000B2",
" < c #6867A4",
" 1 c #0000C9",
" 2 c #7C7BA7",
" 3 c #F9F6F0",
" 4 c #00008A",
" 5 c #F8F4EF",
" 6 c #0000E0",
" 7 c #BAB7B2",
" 8 c #0000A1",
" 9 c #FBF8F5",
" 0 c #0000F7",
" q c #FAF8F4",
" w c #00008D",
" e c #0000B8",
" r c #FDFCFA",
" t c #0000CF",
" y c #0000E6",
" u c #BCBBBA",
" i c #0000FD",
" p c #000093",
" a c #F9F5EF",
" s c #0000AA",
" d c #3837A2",
" f c #FAF7F3",
" g c #0000C1",
" h c #DFDDE9",
" j c #9190AD",
" k c #151590",
" l c #BAB8B4",
" z c #FDFBF9",
" x c #FCFBF8",
" c c #FBF9F7",
" v c #0000EF",
" b c #BDBCBA",
" n c #0000B0",
" m c #BCBAB9",
" M c #3F3F9B",
" N c #FDFDFC",
" B c #00009C",
" V c #0000C7",
" C c #0000B3",
" Z c #0000DE",
" A c #0000F5",
" S c #FAF6F2",
" D c #F9F6F1",
" F c #00008B",
" G c #BAB7B3",
" H c #A7A6D2",
" J c #0000A2",
" K c #FCFAF7",
" L c #A0A0A0",
" P c #C6C6E3",
" I c #0000B9",
" U c #A9A8D7",
" Y c #BBB9B7",
" T c #BAB9B6",
" R c #3F3E9A",
" E c #3E3E99",
" W c #FDFCFB",
" Q c #0000D0",
" ! c #BDBDBC",
" ~ c #0000E7",
" ^ c #000094",
" / c #F9F5F0",
" ( c #F8F5EF",
" ) c #0000AB",
" _ c #0000D6",
" ` c #3837A3",
" ' c #A7A5D1",
" ] c #B9B6B1",
" [ c #8C8BC7",
" { c #FBF9F5",
" } c #0000C2",
" | c #0000ED",
".  c #BAB8B5",
".. c #0000D9",
".X c #FDFBFA",
".o c #FCFBF9",
".O c #00009A",
".+ c #E1E1EF",
".@ c #BDBCBB",
".# c none",
".$ c #6867A3",
".% c #0000C8",
".& c #F8F4EE",
".* c #0000DF",
".= c #1C1C97",
".- c #FBF8F4",
".; c #0000F6",
".: c #F9F6F2",
".> c #00008C",
"., c #9291AE",
".< c #2A2A2A",
".1 c #BAB7B4",
".2 c #0000A3",
".3 c #FCFAF8",
".4 c #0000BA",
".5 c #BDBBBA",
".6 c #BCBBB9",
".7 c #3F3E9B",
".8 c #3E3E9A",
".9 c #FEFEFD",
".0 c #0000D1",
".q c #0000FC",
".w c #000092",
".e c #F8F3ED",
".r c #BDBDBD",
".t c #0000E8",
".y c #F7F3EC",
".u c #0000A9",
".i c #0000FF",
/* pixels */
".#.#.#.#.#.#.#.#.#.#.#.#.#.#.#.#.#.#.#.#.#.#",
".#                                  .<.#.#.#",
".#  .i.i 0 v.t 6...0 1 }.4 C ).2 B ^ w  .#.#",
".#  .i i.; & ~.* @ Q.% g I , s J : p.> L  .#",
".#  .i.q A | y Z _ t V X e n.u 8.O.w 4 L  .#",
".#   x.o r.@ W W r.o.6 K % 9 q. .: / a L  .#",
".#  .o r W ! ; N W r u.3 c {.-.  S D a L  .#",
".#  .5.@ !.r.r.r M.7 R.8.8 E j.  l.1 G L  .#",
".#  .X W ;.r.# P F F F F F F +.  . D / L  .#",
".#   z W N.r.9 U.+ W.5.3 [ d 9.  . D / L  .#",
".#  .o r W ! ; N W r u.3 ` h.-.  S D a L  .#",
".#  .6 u b.@.@.@ b u.6 <.$ Y T. .1 G 7 L  .#",
".#   K x.o.5.X z.o x.,.= % 9 f l D / 5 L  .#",
".#   c K.3 m x.3.3 K k O 9 q f.1 D /.& L  .#",
".#   % % c * K K c H F ' q f ..1 / (.& L  .#",
".#   Y Y = = = = = - F 2.  l.1 G 7 ] ] L  .#",
".#   f q.- Y 9 9.- $ - o . D 3 G 5.&.e L  .#",
".#   . f f.  f f f f l S D / / #.&.e.y L  .#",
".#   D.: S l . . S.:.1 D / a 5 ].e.y > L  .#",
".#.#   L L L L L L L L L L L L L L L L L  .#",
".#.#.#                                    .#",
".#.#.#.#.#.#.#.#.#.#.#.#.#.#.#.#.#.#.#.#.#.#"
};
