/* XPM */
const char *days_5_xpm[] = {
/* width height ncolors chars_per_pixel */
"22 22 135 2",
/* colors */
"   c #000000",
" . c #7D7CA9",
" X c #FAF7F2",
" o c #0000C0",
" O c #0000D7",
" + c #B9B6B2",
" @ c #8C8BC8",
" # c #FBF9F6",
" $ c #DFDDEB",
" % c #0000EE",
" & c #BCBAB8",
" * c #BBBAB7",
" = c #3E3D99",
" - c #FEFDFC",
" ; c #00009B",
" : c #F7F2EB",
" > c #0000B2",
" , c #0000C9",
" < c #7C7BA7",
" 1 c #F9F6F0",
" 2 c #00008A",
" 3 c #F8F4EF",
" 4 c #0000E0",
" 5 c #5352AD",
" 6 c #BAB7B2",
" 7 c #0000A1",
" 8 c #FBF8F5",
" 9 c #0000F7",
" 0 c #FAF8F4",
" q c #00008D",
" w c #0000B8",
" e c #C3C2DF",
" r c #FDFCFA",
" t c #0000CF",
" y c #0000E6",
" u c #BCBBBA",
" i c #0000FD",
" p c #000093",
" a c #F9F5EF",
" s c #0000AA",
" d c #7D7CAA",
" f c #FAF7F3",
" g c #0000C1",
" h c #151590",
" j c #C4C3DF",
" k c #BAB8B4",
" l c #FDFBF9",
" z c #FCFBF8",
" x c #FBF9F7",
" c c #0000EF",
" v c #BDBCBA",
" b c #0000B0",
" n c #BCBAB9",
" m c #BBBAB8",
" M c #FEFDFD",
" N c #FDFDFC",
" B c #00009C",
" V c #0000C7",
" C c #0000B3",
" Z c #0000DE",
" A c #6969A6",
" S c #0000F5",
" D c #FAF6F2",
" F c #7C7BA8",
" G c #F9F6F1",
" H c #00008B",
" J c #6F6EB9",
" K c #A8A6D3",
" L c #BAB7B3",
" P c #A7A6D2",
" I c #0000A2",
" U c #FCFAF7",
" Y c #A0A0A0",
" T c #0000B9",
" R c #C5C4E2",
" E c #BBB9B7",
" W c #BAB9B6",
" Q c #3F3E9A",
" ! c #FDFCFB",
" ~ c #0000D0",
" ^ c #53529D",
" / c #BDBDBC",
" ( c #0000E7",
" ) c #000094",
" _ c #F9F5F0",
" ` c #F8F5EF",
" ' c #C3C1DC",
" ] c #0000AB",
" [ c #0000D6",
" { c #B9B6B1",
" } c #FBF9F5",
" | c #0000C2",
".  c #0000ED",
".. c #A6A4B2",
".X c #292994",
".o c #BAB8B5",
".O c #0000D9",
".+ c #FDFBFA",
".@ c #FCFBF9",
".# c #00009A",
".$ c #BDBCBB",
".% c none",
".& c #5453A0",
".* c #6867A3",
".= c #0000C8",
".- c #F8F4EE",
".; c #0000DF",
".: c #A6A4CF",
".> c #1C1C97",
"., c #FBF8F4",
".< c #0000F6",
".1 c #F9F6F2",
".2 c #00008C",
".3 c #9191AD",
".4 c #5454B0",
".5 c #C3C2DE",
".6 c #2A2A2A",
".7 c #BAB7B4",
".8 c #0000A3",
".9 c #FCFAF8",
".0 c #0000BA",
".q c #BDBBBA",
".w c #BCBBB9",
".e c #3F3E9B",
".r c #3E3E9A",
".t c #FEFEFD",
".y c #0000D1",
".u c #0000FC",
".i c #000092",
".p c #F8F3ED",
".a c #BDBDBD",
".s c #0000E8",
".d c #F7F3EC",
".f c #0000A9",
".g c #0000FF",
/* pixels */
".%.%.%.%.%.%.%.%.%.%.%.%.%.%.%.%.%.%.%.%.%.%",
".%                                  .6.%.%.%",
".%  .g.g 9 c.s 4.O.y , |.0 C ].8 B ) q  .%.%",
".%  .g i.< % (.; O ~.= g T > s I ; p.2 Y  .%",
".%  .g.u S.  y Z [ t V o w b.f 7.#.i 2 Y  .%",
".%   z.@ r.$ ! ! r.@.w U # 8 0.o.1 _ a Y  .%",
".%  .@ r ! / - N ! r u.9 x }.,.o D G a Y  .%",
".%  .q.$ /.a.a.a A.e Q.r.r.* E.o k.7 L Y  .%",
".%  .+ ! -.a.%.t.4 H H H H P 8.o X G _ Y  .%",
".%   l ! N.a.t M.4 R.q.9 U # 8.o X G _ Y  .%",
".%  .@ r ! / - N H r d K $ }.,.o D G a Y  .%",
".%  .w u v.$.$.$ H.& . h H F W.o.7 L 6 Y  .%",
".%   U z.@.q.+ l @ z & e H.> f k G _ 3 Y  .%",
".%   x U.9 n z.9.9 U m # H H f.7 G _.- Y  .%",
".%   # # x & U j H.5 * 8 H H X.7 _ `.- Y  .%",
".%   E E * * *.3 H.X.. < H ^.7 L 6 { { Y  .%",
".%   f 0., E 8 8 ' J = 5.: G 1 L 3.-.p Y  .%",
".%   X f f.o f f f f k D G _ _ +.-.p.d Y  .%",
".%   G.1 D k X X D.1.7 G _ a 3 {.p.d : Y  .%",
".%.%   Y Y Y Y Y Y Y Y Y Y Y Y Y Y Y Y Y  .%",
".%.%.%                                    .%",
".%.%.%.%.%.%.%.%.%.%.%.%.%.%.%.%.%.%.%.%.%.%"
};
