/* XPM */
const char *days_1_xpm[] = {
/* width height ncolors chars_per_pixel */
"22 22 115 2",
/* colors */
"   c #000000",
" . c #FAF7F2",
" X c #0000C0",
" o c #0000D7",
" O c #B9B6B2",
" + c #FBF9F6",
" @ c #0000EE",
" # c #BCBAB8",
" $ c #BBBAB7",
" % c #3E3D99",
" & c #FEFDFC",
" * c #00009B",
" = c #F7F2EB",
" - c #0000B2",
" ; c #0000C9",
" : c #F9F6F0",
" > c #00008A",
" , c #F8F4EF",
" < c #0000E0",
" 1 c #5352AD",
" 2 c #BAB7B2",
" 3 c #0000A1",
" 4 c #FBF8F5",
" 5 c #0000F7",
" 6 c #FAF8F4",
" 7 c #00008D",
" 8 c #0000B8",
" 9 c #FDFCFA",
" 0 c #0000CF",
" q c #0000E6",
" w c #BCBBBA",
" e c #0000FD",
" r c #000093",
" t c #F9F5EF",
" y c #0000AA",
" u c #C2BFDA",
" i c #FAF7F3",
" p c #0000C1",
" a c #BAB8B4",
" s c #FDFBF9",
" d c #FCFBF8",
" f c #FBF9F7",
" g c #E2E1EF",
" h c #0000EF",
" j c #A8A8B6",
" k c #BDBCBA",
" l c #0000B0",
" z c #BCBAB9",
" x c #FEFDFD",
" c c #FDFDFC",
" v c #00009C",
" b c #0000C7",
" n c #0000B3",
" m c #0000DE",
" M c #0000F5",
" N c #FAF6F2",
" B c #F9F6F1",
" V c #00008B",
" C c #5352AE",
" Z c #BAB7B3",
" A c #0000A2",
" S c #FCFAF7",
" D c #A0A0A0",
" F c #0000B9",
" G c #BBB9B7",
" H c #BAB9B6",
" J c #3F3E9A",
" K c #FDFCFB",
" L c #0000D0",
" P c #BDBDBC",
" I c #0000E7",
" U c #000094",
" Y c #F9F5F0",
" T c #F8F5EF",
" R c #0000AB",
" E c #0000D6",
" W c #B9B6B1",
" Q c #FBF9F5",
" ! c #0000C2",
" ~ c #0000ED",
" ^ c #BAB8B5",
" / c #0000D9",
" ( c #FDFBFA",
" ) c #FCFBF9",
" _ c #00009A",
" ` c #BDBCBB",
" ' c none",
" ] c #0000C8",
" [ c #F8F4EE",
" { c #0000DF",
" } c #7E7DAB",
" | c #8B8AC5",
".  c #FBF8F4",
".. c #0000F6",
".X c #F9F6F2",
".o c #00008C",
".O c #2A2A2A",
".+ c #BAB7B4",
".@ c #0000A3",
".# c #8C8CC9",
".$ c #FCFAF8",
".% c #0000BA",
".& c #BDBBBA",
".* c #BCBBB9",
".= c #3E3E9A",
".- c #FEFEFD",
".; c #0000D1",
".: c #0000FC",
".> c #000092",
"., c #F8F3ED",
".< c #BDBDBD",
".1 c #0000E8",
".2 c #F7F3EC",
".3 c #0000A9",
".4 c #0000FF",
/* pixels */
" ' ' ' ' ' ' ' ' ' ' ' ' ' ' ' ' ' ' ' ' ' '",
" '                                  .O ' ' '",
" '  .4.4 5 h.1 < /.; ; !.% n R.@ v U 7   ' '",
" '  .4 e.. @ I { o L ] p F - y A * r.o D   '",
" '  .4.: M ~ q m E 0 b X 8 l.3 3 _.> > D   '",
" '   d ) 9 ` K K 9 ).* S + 4 6 ^.X Y t D   '",
" '   ) 9 K P & c K 9 w.$ f Q.  ^ N B t D   '",
" '  .& ` P.<.<.< j } J.= # $ G ^ a.+ Z D   '",
" '   ( K &.< '.- g.# V V S + 4 ^ . B Y D   '",
" '   s K c.<.- x c K V V S + 4 ^ . B Y D   '",
" '   ) 9 K P & c K 9 V V f Q.  ^ N B t D   '",
" '  .* w k ` ` ` k w V V $ G H ^.+ Z 2 D   '",
" '   S d ).& ( s ) d V V + 4 i a B Y , D   '",
" '   f S.$ z d.$.$ S V V 4 6 i.+ B Y [ D   '",
" '   + + f # S S f + V V 6 i ..+ Y T [ D   '",
" '   G G $ $ $ $ $ G V V ^ a.+ Z 2 W W D   '",
" '   i 6.  G 4 4 | C % 1 1 u : Z , [., D   '",
" '   . i i ^ i i i i a N B Y Y O [.,.2 D   '",
" '   B.X N a . . N.X.+ B Y t , W.,.2 = D   '",
" ' '   D D D D D D D D D D D D D D D D D   '",
" ' ' '                                     '",
" ' ' ' ' ' ' ' ' ' ' ' ' ' ' ' ' ' ' ' ' ' '"
};
