/* XPM */
const char *down_xpm[] = {
/* width height ncolors chars_per_pixel */
"22 22 70 1",
/* colors */
"  c none",
". c #0D3652",
"X c #D3E5F0",
"o c #15C1DA",
"O c #1CA2C3",
"+ c #1B415C",
"@ c #1A415B",
"# c #0E97BF",
"$ c #7FBDD5",
"% c #7BC6DE",
"& c #0E9DC2",
"* c #59C3DA",
"= c #5FC0D6",
"- c #0E8BAE",
"; c #BCE2EC",
": c #0EADCB",
"> c #40D1DB",
", c #7CC9DE",
"< c #DDEFF8",
"1 c #FDFCFD",
"2 c #0E95B7",
"3 c #26C3D5",
"4 c #0E91B7",
"5 c #A7D7E7",
"6 c #48DFE9",
"7 c #137194",
"8 c #0E87A9",
"9 c #0EB0CD",
"0 c #CEE9F2",
"q c #A9CDDE",
"w c #254A63",
"e c #0E94B9",
"r c #010101",
"t c #0E3753",
"y c #8FCCE2",
"u c #80B6D0",
"i c #DFEBF5",
"p c #24A9CB",
"a c #3DB9D3",
"s c #DFEFF8",
"d c #14678D",
"f c #106589",
"g c #337F9E",
"h c #B5DEEC",
"j c #0E91B8",
"k c #6BBED8",
"l c #98C7D9",
"z c #8FCADA",
"x c #96C3D7",
"c c #94C1D5",
"v c #CDE1EC",
"b c #0F90B5",
"n c #FEFBFE",
"m c #E1EBF2",
"M c #0E9FC4",
"N c #BCDEEB",
"B c #17ABD0",
"V c #116C92",
"C c #DCEDF3",
"Z c #20C2D5",
"A c #30536B",
"S c #1F779C",
"D c #0E8FB6",
"F c #0E9EC3",
"G c #44C0D7",
"H c #C0DFEE",
"J c #46DBE6",
"K c #0D3D5C",
"L c #DAEDF7",
"P c #010001",
/* pixels */
"                      ",
"                      ",
"                      ",
"       .twA+...       ",
"       .cvmiXSP       ",
"       .Lz$,ydP       ",
"       .n;a2ZdP       ",
"       .n0=8>dP       ",
"       .nhG-JVP       ",
"       @n%:e37P       ",
"  .KKKKKHkp&obKKKKKK  ",
"   Pgulx5:jDo#9OgfP   ",
"    Pgsq*M4#Bo6OfP    ",
"     Pg1C*F#o6OfP     ",
"      rg1C**6OfP      ",
"       Pg1N6OfP       ",
"        Pg<OfP        ",
"         PgfP         ",
"          PP          ",
"                      ",
"                      ",
"                      "
};
