/* XPM */
const char *editdelete_xpm[] = {
/* width height ncolors chars_per_pixel */
"22 22 124 2",
/* colors */
"   c #000000",
" . c #FBF7F3",
" X c #F4E3D5",
" o c #FAAEA3",
" O c #FEBEBE",
" + c #D1BDAC",
" @ c #D6C8BE",
" # c #CEB49F",
" $ c #C7A081",
" % c #CFCBC4",
" & c #FEFDFC",
" * c #820202",
" = c #FAF4EE",
" - c #D9CEC7",
" ; c #F2E0CF",
" : c #CFB8A6",
" > c #F7EBE1",
" , c #C8A488",
" < c #ECCEB5",
" 1 c #D9CBC0",
" 2 c #F1DBC7",
" 3 c #D0C8C1",
" 4 c #FDFAF7",
" 5 c #EED2BA",
" 6 c #E4E0DB",
" 7 c #F2DDCB",
" 8 c #EAC9AC",
" 9 c #FEFCFB",
" 0 c #FDFCFA",
" q c #D2C0B2",
" w c #FBF3EE",
" e c #535353",
" r c #F2DFCE",
" t c #FEFEFE",
" y c #857F7A",
" u c #E7C2A2",
" i c #F3E1D2",
" p c #3F3F3F",
" a c #ECECEC",
" s c #393939",
" d c #CEB69D",
" f c #FE7E7A",
" g c #333333",
" h c #313131",
" j c #E0E0E0",
" k c #DEDEDE",
" l c #F9F0E8",
" z c #C6B8AC",
" x c #F1DCC9",
" c c #292929",
" v c #FDFBF9",
" b c #D6D6D6",
" n c #212121",
" m c #EED3BC",
" M c #1F1F1F",
" N c #191919",
" B c #C6C6C6",
" V c #131313",
" C c #B4B4B4",
" Z c #E9C5A6",
" A c #D8D0CA",
" S c #D0BCAB",
" D c #EADFD5",
" F c #C9A88D",
" G c #FDFAF8",
" H c #F5E6D9",
" J c #989898",
" K c #EAC9AD",
" L c #FE0202",
" P c #F0D8C3",
" I c #D4C4B8",
" U c #CDB09A",
" Y c #CCB099",
" T c #F4E3D4",
" R c #F1DAC7",
" E c #F5E5D8",
" W c #FEFDFB",
" Q c #B8B1A9",
" ! c #CBAD94",
" ~ c #D7CCC4",
" ^ c #F2DECE",
" / c none",
" ( c #CFB8A5",
" ) c #4C4C4C",
" _ c #FDFDFD",
" ` c #C8A487",
" ' c #4A4A4A",
" ] c #EFD7C1",
" [ c #464646",
" { c #D6C0AF",
" } c #424242",
" | c #3E3E3E",
".  c #3A3A3A",
".. c #E8C5A6",
".X c #FCF8F5",
".o c #F4E4D6",
".O c #E1E1E1",
".+ c #2C2C2C",
".@ c #C9A88E",
".# c #CEB5A0",
".$ c #262626",
".% c #F6E8DB",
".& c #BBB2AB",
".* c #D2C0B1",
".= c #A09B97",
".- c #CBAC93",
".; c #F0EEEC",
".: c #181818",
".> c #FFFEFE",
"., c #C9C9C9",
".< c #FEFEFD",
".1 c #141414",
".2 c #EFD6C0",
".3 c #101010",
".4 c #FBF5F0",
".5 c #F4E1D2",
".6 c #0C0C0C",
".7 c #F3E1D1",
".8 c #ECCDB3",
".9 c #080808",
".0 c #FAD2CE",
".q c #060606",
".w c #020202",
".e c #EFD8C3",
/* pixels */
" / / / e ' }.  h c n.:.3.9     / / / / / / /",
" / / / ) k k k k k k b B C   J   / / / / / /",
" / / / [ k / / / / / / a.O.1., J   / / / / /",
" / / / p k / / / / / / / a c /., J   / / / /",
" / / / s k / / / / / / / / | j /., J   / / /",
" / / / g k / / / / / / / / e | c.1     / / /",
" / / /.+ k / / / / / / / / _.; % Q y   / / /",
" / / /.$ k / / / / / / / / & 4 6 3.=   / / /",
" / / / M k / / / / / / / W.X w l D.&   / / /",
" / / / N k / O / / / / 9.X = o O H z   / / /",
" / / / N k / * L / / / 9.X o L * H z   / / /",
" / / / V k / j * L.0 0 . o L * - i.*   / / /",
" / / /.6 k / / j * L.0.0 L * -.5 7 S   / / /",
" / / /.q k / / t j * L L * -.7 7 P (   / / /",
" / / /.q k / / t v.0 L L o E.7 7 P (   / / /",
" / / /   k /.< G.0 L * * L o x.e m #   / / /",
" / / /   k.> 4.0 L * - - * L o m < Y   / / /",
" / / /.w k 4.0 L * -.o r { * L o K.-   / / /",
" / / /   k.4 f * 1 X ; R ] d * f Z F   / / /",
" / / /   k l >.% T ^ 2.2 5.8 8.. u `   / / /",
" / / /   A A ~ @ I q + :.# U !.@ , $   / / /",
" / / /                                 / / /"
};
