/* XPM */
const char *email_xpm[] = {
/* width height ncolors chars_per_pixel */
"24 24 223 2",
/* colors */
"   c none",
" . c #FBF0BE",
" X c #F9EABC",
" o c #F4E8B7",
" O c #F2E4B5",
" + c #FCFBF7",
" @ c #DEDAC9",
" # c #C6BA97",
" $ c #E6DCBD",
" % c #FDF7E4",
" & c gray60",
" * c #C0B291",
" = c #EEEDE9",
" - c #8B8374",
" ; c #FDF3D0",
" : c #D6CEAD",
" > c #CFC9B0",
" , c #E9E6DA",
" < c #A8A08D",
" 1 c #817D6A",
" 2 c #9E9C97",
" 3 c #F5EBC8",
" 4 c #F0E8CD",
" 5 c #9F998E",
" 6 c #EBE4C8",
" 7 c gray50",
" 8 c #E6DEC3",
" 9 c #FCFAF3",
" 0 c #D6D5D1",
" q c #7B7B7B",
" w c #777777",
" e c #E7DCB0",
" r c #E7DAB0",
" t c gray46",
" y c #FCF6DF",
" u c #F2F0E9",
" i c #938D6E",
" p c #CCCBC7",
" a c #FDF5D6",
" s c #8C8471",
" d c #6D6D6D",
" f c #D4CCB1",
" g c #FDF2CC",
" h c gray42",
" j c #AEA58F",
" k c dim gray",
" l c #656565",
" z c #F1E9CA",
" x c #867D61",
" c c #F1E7CA",
" v c gray38",
" b c #F1E6C0",
" n c #EEE4BD",
" m c #5B5B5B",
" M c #FBFAF8",
" N c #EEE1B3",
" B c gray34",
" V c #FDF8E6",
" C c #535353",
" Z c gray30",
" A c #978B64",
" S c #4B4B4B",
" D c #F3ECDC",
" F c gray28",
" G c #A3A094",
" H c #434343",
" J c #F1E9D0",
" K c #414141",
" L c #F3E8C8",
" P c #FCECBD",
" I c #E7E2D0",
" U c #EDE4C2",
" Y c #393939",
" T c #E6DDC5",
" R c #373737",
" E c gray20",
" W c #E6DABB",
" Q c #F8F7F1",
" ! c #E8DBB3",
" ~ c #2F2F2F",
" ^ c #FCF7E1",
" / c #F4F1ED",
" ( c #2D2D2D",
" ) c gray17",
" _ c #FDF4D8",
" ` c gray16",
" ' c #DFD3AA",
" ] c #F3EEE2",
" [ c #F9F0D4",
" { c #898370",
" } c #FDF1CE",
" | c #232323",
".  c #D1C9B0",
".. c #F0EBD5",
".X c gray12",
".o c #1D1D1D",
".O c #1B1B1B",
".+ c #F3E7C4",
".@ c #191919",
".# c #E8E1CD",
".$ c #FDFDFC",
".% c #131313",
".& c #B8B5AB",
".* c #DAD6C9",
".= c #FDF9E8",
".- c gray5",
".; c #FDF7E8",
".: c #0B0B0B",
".> c #E6D8AD",
"., c #090909",
".< c #EAD9A7",
".1 c #F2F0E7",
".2 c #908873",
".3 c #FDF5D4",
".4 c #8E8671",
".5 c gray1",
".6 c #FDF0CA",
".7 c #A7A090",
".8 c #E3E2D8",
".9 c #E9DFC0",
".0 c #E8DDBF",
".q c #E6DDBD",
".w c #FDFBEE",
".e c #FEF9EF",
".r c #FDF9EE",
".t c #E5DBBC",
".y c #F8F6F3",
".u c #FDF6E4",
".i c #FCF6E3",
".p c #B2AB97",
".a c #FDF4D0",
".s c #FAF0CD",
".d c #E6E4E1",
".f c #BDB8B2",
".g c #EBDFB4",
".h c #E7DCBA",
".j c #ECDDB5",
".k c gray48",
".l c #E9DDB2",
".z c #FDF8EA",
".x c #F9F5F0",
".c c #E8DBB1",
".v c #E7DBB0",
".b c #E6D7AF",
".n c #747474",
".m c #8C867B",
".M c #FEF4D7",
".N c gray44",
".B c #F3EEE0",
".V c #AFA690",
".C c gray40",
".Z c #EDE7D0",
".A c #F0E8C9",
".S c #626262",
".D c #959594",
".F c gray37",
".G c #F2E6B7",
".H c gray36",
".J c #EDE3BC",
".K c #FCFBF9",
".L c #B5B4B0",
".P c #EFE2B4",
".I c #E7DCC0",
".U c #EFE0B4",
".Y c #E0D7C3",
".T c #E7DBB6",
".R c #E3D8BC",
".E c #FDF7E6",
".W c gray32",
".Q c #505050",
".! c #FCF6DB",
".~ c #AEA99F",
".^ c white",
"./ c #FCF4DB",
".( c #B5AD92",
".) c #FDF3D2",
"._ c #484848",
".` c #F6EED5",
".' c #444444",
".] c #A8A08F",
".[ c #F5EBCA",
".{ c #9B9A96",
".} c #3E3E3E",
".| c #3A3A3A",
"X  c #ECE1C1",
"X. c #E6E0C5",
"XX c #FCFAF5",
"Xo c #343434",
"XO c #FDF9EC",
"X+ c #F7F4F0",
"X@ c #AAA080",
"X# c #2C2C2C",
"X$ c #92896F",
"X% c #948867",
"X& c gray15",
"X* c gray14",
"X= c #C3C3C0",
"X- c #222222",
"X; c #A9A38C",
"X: c #D7CAA2",
"X> c gray11",
"X, c #EFE4C0",
"X< c #F3E5BA",
"X1 c #161616",
"X2 c #FCFCFB",
"X3 c gray8",
"X4 c gray7",
"X5 c #101010",
"X6 c #E2D9BD",
"X7 c #FDF8E8",
"X8 c #9A9273",
"X9 c #0C0C0C",
"X0 c #FCF5DD",
"Xq c #ACA89F",
"Xw c #060606",
"Xe c #F1EFE6",
"Xr c #8A8677",
"Xt c #FEF4D5",
"Xy c #FDF4D4",
"Xu c #040404",
"Xi c #F3EEDE",
"Xp c #A8A49B",
"Xa c black",
/* pixels */
"                                                ",
"                                                ",
"                                                ",
"Xo ~ ( ) `X&X*X-.X.o.O.@X1X3X4X5.-.:.,XwXu.5    ",
" Y.^ M.yX+ / uXe ].BXi D.. J 4 z.AX, n.J eXw    ",
".}.9.^.e 9 9 9.e.rXO.=.E.i ^X0.! a.) ; P $.,    ",
" HXp L.^X2 + +XX.e.r.zX7.u ^ y./.M.3 P $ xX9    ",
"._.8 2.L ..^.K + 9.rXOX7 % ^ y./ g PX@ i #X5    ",
" Z.1.x 0.D P.^.$ 9.rXO.; V ^ y g o.4 * :X:.%    ",
".W.1 9 Q.d &X= L.^.rXOX7 % ^ P.V s. .RX  'X1    ",
" BXe.eXX + = p.{ 3.^.wX7./.t -.( >X6X .+ e.@    ",
".H ].r.e 9.^ X.f.&.~.^X< jXr 1.l 6 c.s g eX>    ",
" v.BXO.r.^.UXq.$ ,.* 5.m.p f.Y {.j.[ } g r.X    ",
".CXi.=.^.g G.$.z.=.E I @.#.Z.` [.2 N g.6.v |    ",
" h D.^ O.7.$X7X7.E.u.i ^ y./ _Xy _X$.P g.vX&    ",
".N 9.G.].$ V %.u.i ^ ^ yX0 _ a.) ; _X8.b.> `    ",
" t U <.$ ^ ^ ^ ^ ^ yX0./ _XtXy.a } g _X%.<X#    ",
".kX; 9X.X.X.X.X. T 8.I.0.q W.h.T !.c.v b A ~    ",
" 7 q w.n.N d k l.S.F m B C.Q S F.' K.}.| R E    ",
"                                                ",
"                                                ",
"                                                ",
"                                                ",
"                                                "
};
