/* XPM */
const char *export_xpm[]={
"16 16 58 1",
". c None",
"# c #0000ff",
"m c #404040",
"z c #585858",
"a c #6e6e6e",
"s c #757575",
"c c #777777",
"k c #7a7a7a",
"N c #7c7c7c",
"g c #7f7f7f",
"S c #898989",
"R c #919191",
"r c #999999",
"M c #9a9a9a",
"2 c #9d9d9d",
"V c #9e9e9e",
"P c #a2a2a2",
"K c #a4a4a4",
"T c #adadad",
"x c #b4b4b4",
"D c #b5b5b5",
"3 c #bababa",
"0 c #c0c0c0",
"h c #c4c4c4",
"X c #c7c7c7",
"C c #c8c8c8",
"o c #c9c9c9",
"i c #cbcbcb",
"y c #cccccc",
"G c #d0d0d0",
"J c #d3d3d3",
"O c #d4d4d4",
"p c #d7d7d7",
"U c #d8d8d8",
"Y c #dadada",
"W c #dddddd",
"H c #dedede",
"L c #dfdfdf",
"E c #e1e1e1",
"Z c #e4e4e4",
"Q c #e5e5e5",
"u c #e6e6e6",
"A c #e8e8e8",
"1 c #eaeaea",
"d c #ebebeb",
"v c #ececec",
"e c #ededed",
"b c #eeeeee",
"w c #efefef",
"q c #f0f0f0",
"B c #f1f1f1",
"n c #f3f3f3",
"l c #f6f6f6",
"I c #f8f8f8",
"t c #fcfcfc",
"F c #fdfdfd",
"j c #fefefe",
"f c #ffffff",
".....##........a",
"....####.......a",
"...######bbbbbbc",
"..########dddefg",
"..########hhhijk",
"....####fffffflm",
"...n####ooopfqrs",
"..bt####uuuvwxyz",
".Auu####uqfBCDyz",
"EFGo####oHIJKLMN",
"ffffffffffOPQRta",
"SSSSSSSSSSTUVBWa",
"UUUUUUUUUUXxYZ.a",
"hhhhhhhhhh0X1..a",
"22222222223w...a",
"ffffffffffn....a"};
