/* XPM */
const char *fax_xpm[] = {
/* width height ncolors chars_per_pixel */
"24 24 318 2",
/* colors */
"   c None",
" . c #E6CA64",
" X c #D4A624",
" o c #5D5C5B",
" O c #D9B336",
" + c #CEB49F",
" @ c #B18B47",
" # c #B9A05C",
" $ c #C7A081",
" % c #C28B05",
" & c #F0E6DE",
" * c #5E5952",
" = c #E7C868",
" - c #3E3C39",
" ; c #FEFDFC",
" : c #77683C",
" > c #5E5234",
" , c #DFAA0A",
" < c #493D26",
" 1 c #F4E7DB",
" 2 c #F0C635",
" 3 c #60584D",
" 4 c #5E564B",
" 5 c #745D2F",
" 6 c #F8F2EC",
" 7 c #F3E0D0",
" 8 c #46413A",
" 9 c #443F38",
" 0 c #696259",
" q c #CFB8A6",
" w c #F7EBE1",
" e c #C8A488",
" r c #39332D",
" t c #ECCEB5",
" y c #FAE05C",
" u c #504D4A",
" i c #554E45",
" p c #4F4D49",
" a c #544E44",
" s c #D0C8C1",
" d c #645E57",
" f c #FBE57E",
" g c #524C42",
" h c #3C3933",
" j c #4C4946",
" k c #FDFAF7",
" l c #3A3731",
" z c #F5E6D8",
" x c None",
" c c #977D5E",
" v c #EED2BA",
" b c #978054",
" n c #E4E0DB",
" m c #FCE88C",
" M c #F2DDCB",
" N c #B7A79B",
" B c #EAC9AC",
" V c #635B4F",
" C c #A38424",
" Z c #D7D4CE",
" A c #C59821",
" S c #FBF3EE",
" D c #47423A",
" F c #F2DFCE",
" G c #FADC62",
" H c #FEFEFE",
" J c #7C7264",
" K c #F6EADF",
" L c #9D6F14",
" P c gray98",
" I c #816A2A",
" U c #EFD6C1",
" Y c #725418",
" T c #F6F6F6",
" R c #E7C2A2",
" E c #C8991D",
" W c #434343",
" Q c #9F6902",
" ! c #F3E1D2",
" ~ c gray95",
" ^ c #55524E",
" / c #53504C",
" ( c #585147",
" ) c #574F46",
" _ c None",
" ` c #F7DA62",
" ' c #403C36",
" ] c #ECECEC",
" [ c #F7ECE3",
" { c #D6A51A",
" } c #3E3A34",
" | c #EAEAEA",
".  c #685F46",
".. c #353535",
".X c #F5E5D7",
".o c #E4E4E4",
".O c #E6D8BB",
".+ c #DAB74C",
".@ c #BD9C4A",
".# c gray87",
".$ c #F9F0E8",
".% c #E3DDD9",
".& c #956405",
".* c #F0D472",
".= c #FADD5E",
".- c #C6B8AC",
".; c #F1DCC9",
".: c #7A6A3D",
".> c #CBB7A7",
"., c #C5B6AB",
".< c #EFEBE8",
".1 c #925E02",
".2 c #D2C6BB",
".3 c #D2C4BB",
".4 c gray84",
".5 c #4F4941",
".6 c #635A4E",
".7 c #EED3BC",
".8 c #9B8650",
".9 c #8B611C",
".0 c #6E665C",
".q c #C1BDB4",
".w c #EDD17C",
".e c #F1EFED",
".r c #E5DCD4",
".t c #FCE684",
".y c #C8C8C8",
".u c #A3750F",
".i c #C6C6C6",
".p c #FBEBA4",
".a c #EFE8E1",
".s c #CC9C20",
".d c #C8C3BE",
".f c #363432",
".g c #B58310",
".h c #A78D41",
".j c #5C564A",
".k c #D1CDCA",
".l c #B6AA9F",
".z c #E5DED7",
".x c #FADD64",
".c c #413D36",
".v c #C08E14",
".b c #E9C5A6",
".n c #8C5802",
".m c #9E6D0D",
".M c #D9A408",
".N c #595754",
".B c #F8D54E",
".V c #D8D0CA",
".C c #867A69",
".Z c #E3BA40",
".A c #C4941B",
".S c #EBDFD6",
".D c #D0BCAB",
".F c #EADFD5",
".G c #F3CF49",
".H c #F9EFE7",
".J c #C9A88D",
".K c #F1DBC8",
".L c #FADA5D",
".P c #F9DA5C",
".I c #D9D9D8",
".U c #524C43",
".Y c #504A41",
".T c #DCD0A6",
".R c #C6C3C2",
".E c #D8CBAC",
".W c #4E483F",
".Q c #F5E6D9",
".! c #383530",
".~ c #9F6E07",
".^ c #36332E",
"./ c #EED2BB",
".( c #49423A",
".) c #F8D247",
"._ c #989898",
".` c #8F6C36",
".' c #817667",
".] c #3D3B38",
".[ c #EAC9AD",
".{ c #918570",
".} c #F7EADE",
".| c #C99C26",
"X  c #AB7402",
"X. c #F6E8DD",
"XX c #393734",
"Xo c #F5E8DC",
"XO c #9B6F10",
"X+ c #DFD5CD",
"X@ c #B09035",
"X# c #9E9B97",
"X$ c #47423B",
"X% c #454039",
"X& c #DCB63F",
"X* c #433E37",
"X= c #F7CF3F",
"X- c #BEB8B3",
"X; c #7B6839",
"X: c #F0D8C3",
"X> c #EFD8C2",
"X, c #CDB09A",
"X< c #CCB099",
"X1 c #595653",
"X2 c #DFAF24",
"X3 c #E4B00B",
"X4 c #DFB53B",
"X5 c #564F46",
"X6 c #E2B834",
"X7 c gray44",
"X8 c #4F4C49",
"X9 c #F1DAC7",
"X0 c #3B3832",
"Xq c #4B4845",
"Xw c #494643",
"Xe c #F5E5D8",
"Xr c #736A5F",
"Xt c #A56E02",
"Xy c #E6D8BC",
"Xu c #BE9A21",
"Xi c #C69615",
"Xp c #43403D",
"Xa c #E8DED5",
"Xs c #959594",
"Xd c #D2A424",
"Xf c #FEFDFB",
"Xg c #4C473F",
"Xh c #C7C1BB",
"Xj c #CCC0B6",
"Xk c #4A453D",
"Xl c #5E584A",
"Xz c #CBAD94",
"Xx c #F5DD71",
"Xc c #9B7826",
"Xv c #E3CEBC",
"Xb c #D7CCC4",
"Xn c #505050",
"Xm c white",
"XM c #CFB8A5",
"XN c #FDFDFD",
"XB c #FDEFA7",
"XV c #C49E2D",
"XC c #C8A487",
"XZ c #FBFBFB",
"XA c #B4A591",
"XS c #EFD7C1",
"XD c #E3B427",
"XF c #E3C148",
"XG c #8B7E6C",
"XH c #A36E06",
"XJ c #B0B0AE",
"XK c #C8981D",
"XL c #A29B93",
"XP c None",
"XI c #ECCEB4",
"XU c #54514D",
"XY c #595248",
"XT c #524F4B",
"XR c #D8A81C",
"XE c #9C7E41",
"XW c #F7EDE3",
"XQ c #B17A03",
"X! c gray92",
"X~ c #815716",
"X^ c #3E3B34",
"X/ c #958265",
"X( c #E8C5A6",
"X) c #E7D6C6",
"X_ c #FCF8F5",
"X` c #F0E9DC",
"X' c gray90",
"X] c #F4E4D6",
"X[ c #FADF68",
"X{ c #EEDED0",
"X} c #F8EFE7",
"X| c #C9A88E",
"o  c #EABD2A",
"o. c gray86",
"oX c #C6920A",
"oo c #CEB5A0",
"oO c #96918A",
"o+ c #E7C248",
"o@ c #BBB2AB",
"o# c #5F5A54",
"o$ c #5E5A53",
"o% c #8C8A8A",
"o& c #D2C0B1",
"o* c #4A443C",
"o= c #A09B97",
"o- c #D49E07",
"o; c #CBAC93",
"o: c #EAB60C",
"o> c #B17C09",
"o, c gray79",
"o< c #A8A5A2",
"o1 c #E4C152",
"o2 c #76673C",
"o3 c #857F79",
"o4 c #8F816F",
"o5 c #B0A196",
"o6 c #DAD6D3",
"o7 c #F5E8DD",
"o8 c #F9D756",
"o9 c #EFD6C0",
"o0 c #855202",
"oq c #BD8604",
"ow c gray75",
"oe c #F4E1D2",
"or c #F3E1D1",
"ot c #9C9996",
"oy c #5B5349",
"ou c #9C7E4A",
"oi c #ECCDB3",
"op c #9A9794",
"oa c #D8A71B",
"os c #EFD8C3",
"od c #776E61",
"of c #A16D06",
/* pixels */
"XPXPXPXPXPXPXPXPXPXPXPXPXPXPXPXPXPXPXPXPXPXPXPXP",
"XPXPXPXPXPXPXPXPXPXPXPXPXPXPXPXPXPXPXPXPXPXPXPXP",
"XPXPXPXPXPXPXPo4XG.C.' JodXr.0 0 do# * j _XPXPXP",
"XPXPXPXPXPXPXPXG.#.#.#.#.#.#.4.iXJo$Xs.. x _XPXP",
"XPXPXPXPXPXPXP.C.#XmXmXmXmXmXm ].IX1ow._.. x _XP",
"XPXPXPXPXPXPXP.8.TXZXmXmXmXmXmXmX!.N |o,._.. x _",
"XPXPXPXPXPXPXPXV.+X' PXmXmXmXmXm H oo.Xmo,._ V x",
"XPXPXPXPXPXPXl ,.M.q ~XmXmXmXmXmXmX7Xn W p.6 3 -",
"XPXPXPXPXPXP.hX2oa #.oXNXmXmXmXmXm P.e ZoOo3 4XX",
"XPXPXPXPXPXPXR.wo+Xi.y TXmXmXmXmXm ; k n so=oyXX",
"XP. .: :o2X@o-.p ` %.@.E.OXyX`XNXfX_ S.$.Fo@ (XX",
"Xuo:X3XD.ZX4 =.t GX&.| A.gXt Q @.< 6.H w.Q.- iXX",
" / C ,.*XB m f G.P.L.= y O QXEo<.d & K.Q !o&.UXX",
" ^X8 Io-X6X[ G.Po8.B.)XK Q botX-.ro7 zoe M.D.5XX",
"XP ^ u >oXo1.xo8.B.)Xd  .{X#XhXaXoXeor MX:XMXgXX",
"XPXP ^XT.A .o8.B.)X= X Lop.k.a [.}Xeor MX:XMo*XX",
"XPXPXP.joqXx.G.s E 2o .1XL.zXWX..X 7.;os.7 + DXX",
"XPXPXPX;.vXFo>.~.mXH {.&X/X+ 1X] 7.;X>.7 tX< 9XX",
"XPXPXPXcXQX  Y ro%ou.no0.`XjX{ F.K U./XI.[o;.cXX",
"XPXPXP.uXO <.f.(.R.%XA.9X~.lX)X9XS vXI.[.b.J }XX",
"XPXPXP 5 -.]Xw )o6X}.S.2 co5Xvo9 voi BX( RXCX0XX",
"XPXPXP /Xq pXUXY.V.VXb.3., N.> qooX,XzX| e $.!XX",
"XPXPXP ^XU ^XPX5 a g.Y.WXkX$ 8X%X* 'X^ h l.!.^XX",
"XPXPXPXPXPXPXP jXpXXXXXXXXXXXXXXXXXXXXXXXXXXXXXp"
};
