/* XPM */
const char *fileopen_xpm[] = {
/* width height ncolors chars_per_pixel */
"22 22 191 2",
/* colors */
"   c #000000",
" . c #F3A45A",
" X c #AFAFAF",
" o c #E2E2E1",
" O c #E0E0DF",
" + c #2D2D2C",
" @ c #DEDEDD",
" # c #FEC27F",
" $ c #DCDCDB",
" % c #0B0704",
" & c #26190E",
" * c #F8AC62",
" = c #292928",
" - c #5E5E5C",
" ; c #252524",
" : c #D6D6D5",
" > c #5A5A58",
" , c #D4D4D3",
" < c #D2D2D1",
" 1 c #D0D0CF",
" 2 c #FCB269",
" 3 c #FEC282",
" 4 c #959595",
" 5 c #CACAC9",
" 6 c #939393",
" 7 c #C8C8C7",
" 8 c #919191",
" 9 c #C6C6C5",
" 0 c #C2C2C1",
" q c #C0C0BF",
" w c #FEC685",
" e c #BABAB9",
" r c #B8B8B7",
" t c #818181",
" y c #B6B6B5",
" u c #B4B4B3",
" i c #B2B2B1",
" p c #B0B0AF",
" a c #E5E5E3",
" s c #FEC888",
" d c #AEAEAD",
" f c #ACACAB",
" g c #DDDDDB",
" h c #A4A4A3",
" j c #A2A2A1",
" k c #9E9E9D",
" l c #FEC88B",
" z c #D3D3D1",
" x c #9C9C9B",
" c c #9A9A99",
" v c #B57740",
" b c #CDCDCB",
" n c #271C11",
" m c #C7C7C5",
" M c #90908F",
" N c #8E8E8D",
" B c #C3C3C1",
" V c #8C8C8B",
" C c #150F09",
" Z c #BDBDBB",
" A c #B9B9B7",
" S c #AFAFAD",
" D c #F2F2F2",
" F c #A9A9A7",
" G c #A5A5A3",
" H c #402915",
" J c #EAEAEA",
" K c #9F9F9D",
" L c #F6B675",
" P c #E4E4E4",
" I c #9D9D9B",
" U c #322011",
" Y c #FEB469",
" T c #2D2D2D",
" R c #FEC280",
" E c #2B2B2B",
" W c #5E5E5D",
" Q c #272727",
" ! c #3C2714",
" ~ c #A86F3C",
" ^ c #A66D3A",
" / c #8B8B89",
" ( c #EEA059",
" ) c #FBB269",
" _ c #FEC283",
" ` c #191919",
" ' c #171717",
" ] c #131313",
" [ c #C4C4C4",
" { c #372312",
" } c #7B7B79",
" | c #EA9E58",
".  c #291A0E",
".. c #EBEBEA",
".X c #383837",
".o c #E9E9E8",
".O c #FECB93",
".+ c #363635",
".@ c #E7E7E6",
".# c #E5E5E4",
".$ c #AEAEAE",
".% c #4E331B",
".& c #ACACAC",
".* c #E1E1E0",
".= c #2C2C2B",
".- c #DDDDDC",
".; c #271A0F",
".: c #D9D9D8",
".> c #262625",
"., c #D5D5D4",
".< c #F2A55C",
".1 c #6D6864",
".2 c #D1D1D0",
".3 c #9A9A9A",
".4 c #CFCFCE",
".5 c #2E1D0F",
".6 c #CDCDCC",
".7 c #FEC182",
".8 c #FED199",
".9 c #C9C9C8",
".0 c #161615",
".q c #C7C7C6",
".w c #141413",
".e c #E5A566",
".r c #FECA8F",
".t c #C3C3C2",
".y c #C1C1C0",
".u c #BFBFBE",
".i c #FEC385",
".p c #BBBBBA",
".a c #FED59C",
".s c #B9B9B8",
".d c #B7B7B6",
".f c #FECE92",
".g c #B3B3B2",
".h c #FEB971",
".j c #B1B1B0",
".k c #ADADAC",
".l c #A9A9A8",
".z c #53504D",
".x c #A7A7A6",
".c c #F9AC62",
".v c #A5A5A4",
".b c #25170C",
".n c #A3A3A2",
".m c #D8D8D6",
".M c #FDB773",
".N c #9D9D9C",
".B c #9B9B9A",
".V c #D0D0CE",
".C c #4A3019",
".Z c #999998",
".A c #979796",
".S c #F4AD6A",
".D c #C8C8C6",
".F c #919190",
".G c #3B2714",
".H c #C4C4C2",
".J c #8D8D8C",
".K c #8B8B8A",
".L c #C0C0BE",
".P c #472E19",
".I c #452C17",
".U c none",
".Y c #818180",
".T c #7F7F7E",
".R c #7D7D7C",
".E c #F7F7F7",
".W c #F5F5F5",
".Q c #F1F1F1",
".! c #6D6D6C",
".~ c #E7E7E7",
".^ c #A0A09E",
"./ c #343434",
".( c #9E9E9C",
".) c #323232",
"._ c #E3E3E3",
".` c #676766",
".' c #E1E1E1",
".] c #4B3119",
".[ c #9A9A98",
".{ c #80532C",
".} c #2A2A2A",
".| c #282828",
"X  c #8A8A88",
"X. c #FED39A",
"XX c #101010",
"Xo c #FDB56E",
"XO c #EAEAE9",
"X+ c #FECE93",
"X@ c #AB6F3B",
/* pixels */
".U.U.U.U.U.U.U.U.U.U.U.U.U.U.U.U.U.U.U.U.U.U",
".U.U.U.U.U.U.U.U.U          .U.U.U.U.U.U.U.U",
".U.U.U.U.U.U.U                  .U  .U.U.U.U",
".U.U.U.U.U.U    .U.U.U.U.U.U        .U.U.U.U",
".U.U.U.U.U  .U.U.U.U.U.U.U.U.U      .U.U.U.U",
".U.U.U.U.U.U.U.U.U.U.U.U.U.U        .U.U.U.U",
".U.U & n n.;.U.U.U.U.U.U.U.U.U.U.U.U.U.U.U.U",
".U.G.S R #.M.G.U.U.U.U.U.U.U.U.U.U.U.U.U.U.U",
".G.e.OX.X+ l L.G C C C C C C C C.U.U.U.U.U.U",
".G.i.a.f R 2.c * * * * * * * * *.G.U.U.U.U.U",
".G s.8 3 (.{.].C.C.C.I H ! { U.5. .b        ",
".G s.rXo ~.z.W.E.W.Q J._.- :.V 7 0.p u X.$./",
".G w.7.<.C 7.~ P.'.:.2.q q r p.x k 4 /.Y W `",
".G _ )X@.z D oXO..._ g z 5.y r S G.B N }.+.U",
".G.h |.%.6.,.*.o.@ a @.,.6.H e.j.x.( V.!  .U",
".G Y ^.z @ , O.# o.-.m.4 7.L.d d h.A.Y =.U.U",
".G ..C.&.9 ,.- $.:., 1.9 0.s i.l.^ M -.0.U.U",
".G v.z.4 [.4 , < 1 b 7.y.p.g f.n.[ t.X.U.U.U",
".G.P.&.g Z B m.D 9.t.u A.g f.v I.J.`  .U.U.U",
" %.1 7.k.g y A.p e y.g d F j.N.F.T +.U.U.U.U",
" ' 8.3.Z x K K K I c.A 6 M.KX .R >.w.U.U.U.U",
" ].) E.= + T T T +.= E.}.| Q.> ;XX.U.U.U.U.U"
};
