/* XPM */
const char *find_xpm[] = {
/* width height ncolors chars_per_pixel */
"22 22 130 2",
/* colors */
"   c #ABABAB",
" . c #707071",
" X c #A7E5EC",
" o c #A5E1EA",
" O c #ECFBFB",
" + c #9D9D9D",
" @ c #EAF9F9",
" # c #99DEE8",
" $ c #99DCE8",
" % c #B6BDBC",
" & c #979797",
" * c #AFE6ED",
" = c #D2F1F5",
" - c #DEEBED",
" ; c #ABE0E9",
" : c #C7EEF4",
" > c #8B8B8B",
" , c #B5D1D5",
" < c #838383",
" 1 c #95D5DD",
" 2 c #46A5AD",
" 3 c #A4DCE5",
" 4 c #404041",
" 5 c #E0F3F5",
" 6 c #B5E7EF",
" 7 c #82D9E1",
" 8 c #CBF1F4",
" 9 c #EDFCFB",
" 0 c #DFF3F7",
" q c #B2E7EF",
" w c #5B5B5B",
" e c #B3E0E6",
" r c #86D4DE",
" t c #575757",
" y c #E8F8F9",
" u c #535353",
" i c #6ABDC9",
" p c #0CFDFA",
" a c #95DBE6",
" s c #7ACAD2",
" d c #4D4D4D",
" f c #494949",
" g c #83D6DE",
" h c #454545",
" j c #B9C2C4",
" k c #E5F6F9",
" l c #66BDC8",
" z c #3D3D3D",
" x c #4BACB4",
" c c #7F8281",
" v c #84DAE2",
" b c #373737",
" n c #50C8D3",
" m c #D8E3E2",
" M c #DDF2F4",
" N c #D2DDDC",
" B c #D3EFF4",
" V c #AEE2EA",
" C c #E9F7F9",
" Z c #999B9A",
" A c #BAEBEF",
" S c #AEE6ED",
" D c #ACE4EB",
" F c #46A3AB",
" G c #E6F7F9",
" H c #7F8180",
" J c #409FA8",
" K c #84CED7",
" L c #DFF3F5",
" P c #B2E5ED",
" I c #A6E4EB",
" U c #81D5E1",
" Y c #74D0DE",
" T c #98DDE7",
" R c #0AE1DF",
" E c #D9EFF2",
" W c #8A8A8A",
" Q c #C0E0E3",
" ! c #AEB6B7",
" ~ c #767676",
" ^ c #56ADB6",
" / c #3F3F40",
" ( c #E1F4F6",
" ) c #79CAD5",
" _ c #9DD5DE",
" ` c #D5F1F4",
" ' c #8BD5E0",
" ] c #6C6C6C",
" [ c #76D1DF",
" { c #9FDBE3",
" } c #62BFC8",
" | c #D1DBDC",
".  c #56B8C6",
".. c #57B5BD",
".X c #BCC3C4",
".o c #65C1CE",
".O c #E7F7F8",
".+ c #DBF4F6",
".@ c #92D8E3",
".# c #4A4A4A",
".$ c #ABE4EB",
".% c #484848",
".& c #DBEBEC",
".* c #8BD4DC",
".= c #C2ECF1",
".- c none",
".; c #CBE2E6",
".: c #4EC3CE",
".> c #91DAE5",
"., c #808382",
".< c #7E8180",
".1 c #A4DCE7",
".2 c #C4E9EC",
".3 c #C8CECF",
".4 c #DEF3F5",
".5 c #B3E7EF",
".6 c #C7EBF2",
".7 c #73D0DE",
".8 c #BBEAF0",
".9 c #46A7B5",
".0 c #ADE5EC",
".q c #141414",
".w c #B8DFE3",
".e c #CEEEF2",
".r c #121212",
".t c #4DB5BF",
".y c #4BB3BD",
".u c #06AFB1",
".i c #D8F3F5",
".p c #85D8E2",
/* pixels */
".-.-.-.-.-.r.r.r.r.r.-.-.-.-.-.-.-.- & w.-.-",
".-.-.-.r.r Z ! j ! Z.r.r.-.-.-.-.-.- w z.- &",
".-.-.r.< |.& 0.+ =.e ( H.r.-.-.-.-.-.-.-.- w",
".-.r.< m y G 8 : 6.1 P 5 c.r.-.-.- + W ~.-.-",
".-.r N @ 9 O.i.= D 1 K ; 5.r.-.- + < ] w.#.-",
".r Z - G O.O `.8 X.@ ) s q Z.r.- > ~ w u f.-",
".r % C 8.i `.6.0 # U.o } o ,.r.- ~ t d h b.-",
".r.3 k.2.= A.0 T.p.7. ...$.w.r.-.-.#.% b.-.-",
".r.X E e S I $.p [.:.t x a ,.r.-.-.-.-.-.-.-",
".r Z B _ '.> 7 Y n.y F i.5 Z.r.-.-.-.-.-.-.-",
".-.r.; * K ).o. .t J.9 v L.r.-.-.-.-.-.-.-.-",
".-.r., 5 3 K } ^ 2 l g ( Z.r.-.-.-.-.-.-.-.-",
".-.-.r.< M V {.* r V.4 Z.r   p.-.-.-.-.-.-.-",
".-.-.-.r.q Z , Q , Z.r.r / R  .r.-.-.-.-.-.-",
".-.-.-.-.-.q.r.r.r.r.-.-.u 4 .  .r.-.-.-.-.-",
".- & w.-.-.-.-.-.-.-.-.-.-.r 4 .  .r.-.-.-.-",
".- w z.- & w.-.-.-.-.-.-.-.-.r 4 .  .r.-.-.-",
".-.-.-.- w z.-.-.-.-.-.-.-.-.-.r 4 .  .r.-.-",
" + W ~.-.-.-.-.-.-.-.-.-.-.-.-.-.r 4 .  .r.-",
" < ] w.#.- & w.-.-.-.-.-.-.-.-.-.-.r 4 ..r.-",
" ~ w u f.- w z.-.-.-.-.-.-.-.-.-.-.-.r.r.-.-",
" t d h b.-.-.-.-.-.-.-.-.-.-.-.-.-.-.-.-.-.-"
};
