/* XPM */
const char *flag_xpm[] = {
/* width height ncolors chars_per_pixel */
"17 18 18 1",
/* colors */
"  c #000000",
". c #A7A7A7",
"X c #9B9B9B",
"o c #FCFCFC",
"O c #F4F4F4",
"+ c #E6E6E6",
"@ c #FFC0C0",
"# c #FF0000",
"$ c #C00000",
"% c none",
"& c #FDFDFD",
"* c #F1F1F1",
"= c #E3E3E3",
"- c #C3C3C3",
"; c #B9B9B9",
": c #B5B5B5",
"> c #B3B3B3",
", c None",
/* pixels */
"%%%%%%%%%%%%%%%%%",
"%%%%%%% O&%%%%%%%",
"%%%%%%   +o%%%%%%",
"%%%%% -  :*%%%%%%",
"%%   -%-  =o%%%%%",
"  -%%%-$  :*%%%%%",
" %%%%@$#$  =o%%%%",
" %%@@$#$$  :*%%%%",
"* @###$$    =o%%%",
"& ###$$ X.  :*%%%",
"%* #$  X>==  =o%%",
"%&+  X.:+oo  :*%%",
"%%&+::=*o%%*  =o%",
"%%%&**o%%%%&  :*%",
"%%%%%%%%%%%%*  =o",
"%%%%%%%%%%%%&  :*",
"%%%%%%%%%%%%%*;;*",
"%%%%%%%%%%%%%&**o"
};
