/* XPM */
const char *folder_new_xpm[] = {
/* width height ncolors chars_per_pixel */
"22 22 206 2",
/* colors */
"   c #000000",
" . c #F3A45A",
" X c #E2E2E1",
" o c #E0E0DF",
" O c #2D2D2C",
" + c #DEDEDD",
" @ c #FEC27F",
" # c #A7A7A7",
" $ c #DCDCDB",
" % c #0B0704",
" & c #26190E",
" * c #F8AC62",
" = c #292928",
" - c #5E5E5C",
" ; c #252524",
" : c #5A5A58",
" > c #D4D4D3",
" , c #D2D2D1",
" < c #D0D0CF",
" 1 c #FCB269",
" 2 c #999999",
" 3 c #FEC282",
" 4 c #50504E",
" 5 c #939393",
" 6 c #C8C8C7",
" 7 c #919191",
" 8 c #C6C6C5",
" 9 c #D2D149",
" 0 c #C2C2C1",
" q c #130E08",
" w c #FEC685",
" e c #BABAB9",
" r c #B6B6B5",
" t c #7F7F7F",
" y c #B2B2B1",
" u c #E5E5E3",
" i c #FEC888",
" p c #AEAEAD",
" a c #ACACAB",
" s c #494901",
" d c #FBFB00",
" f c #A2A2A1",
" g c #D5D5D3",
" h c #FEC88B",
" j c #9C9C9B",
" k c #9A9A99",
" l c #B57740",
" z c #CDCDCB",
" x c #271C11",
" c c #969695",
" v c #C7C7C5",
" b c #90908F",
" n c #C3C3C1",
" m c #150F09",
" M c #888887",
" N c #BDBDBB",
" B c #F3F286",
" V c #848483",
" C c #B9B9B7",
" Z c #828281",
" A c #FCFCFC",
" S c #CFCE48",
" D c #7A7A79",
" F c #F4F4F4",
" G c #787877",
" H c #F2F2F2",
" J c #767675",
" K c #F0F0F0",
" L c #747473",
" P c #A9A9A7",
" I c #EAEAEA",
" U c #9F9F9D",
" Y c #F6B675",
" T c #333333",
" R c #E4E4E4",
" E c #9D9D9B",
" W c #FEB469",
" Q c #808004",
" ! c #646463",
" ~ c #2D2D2D",
" ^ c #FEC280",
" / c #2B2B2B",
" ( c #F6F611",
" ) c #939391",
" _ c #272727",
" ` c #5C5C5B",
" ' c #A86F3C",
" ] c #A66D3A",
" [ c #EEA059",
" { c #FBB269",
" } c #FEC283",
" | c #818129",
".  c #171717",
".. c #131313",
".X c #C4C4C4",
".o c #E3E254",
".O c #EA9E58",
".+ c #B6B6B6",
".@ c #EBEBEA",
".# c #FDFD00",
".$ c #383837",
".% c #E9E9E8",
".& c #FECB93",
".* c #E7E7E6",
".= c #B0B0B0",
".- c #80800D",
".; c #E5E5E4",
".: c #4E331B",
".> c #ACACAC",
"., c #E1E1E0",
".< c #2C2C2B",
".1 c #DDDDDC",
".2 c #271A0F",
".3 c #D9D9D8",
".4 c #262625",
".5 c #D5D5D4",
".6 c #F2A55C",
".7 c #6D6864",
".8 c #D1D1D0",
".9 c #9A9A9A",
".0 c #CFCFCE",
".q c #989898",
".w c #CDCDCC",
".e c #FEC182",
".r c #FED199",
".t c #C9C9C8",
".y c #161615",
".u c #141413",
".i c #C5C5C4",
".p c #E5A566",
".a c #FECA8F",
".s c #C3C3C2",
".d c #8C8C8C",
".f c #C1C1C0",
".g c #BFBFBE",
".h c #FEC385",
".j c #BBBBBA",
".k c #FED59C",
".l c #B9B9B8",
".z c #B7B7B6",
".x c #B5B5B4",
".c c #FECE92",
".v c #B3B3B2",
".b c #FEB971",
".n c #CFCE49",
".m c #ADADAC",
".M c #53504D",
".N c #DE9A58",
".B c #F9AC62",
".V c #A5A5A4",
".C c #A1A1A0",
".Z c #FDB773",
".A c #9F9F9E",
".S c #9D9D9C",
".D c #4A3019",
".F c #999998",
".G c #979796",
".H c #F4AD6A",
".J c #C8C8C6",
".K c #919190",
".L c #3B2714",
".P c #8D8D8C",
".I c #8B8B8A",
".U c #C0C0BE",
".Y c #472E19",
".T c #452C17",
".R c none",
".E c #FFFF00",
".W c #818180",
".Q c #B6B6B4",
".! c #7F7F7E",
".~ c #7D7D7C",
".^ c #F7F7F7",
"./ c #F5F5F5",
".( c #494900",
".) c #F1F1F1",
"._ c #DBDA4D",
".` c #3F2814",
".' c #FFFFC3",
".] c #E7E7E7",
".[ c #E5E5E5",
".{ c #323232",
".} c #E3E3E3",
".| c #676766",
"X  c #FFFFAF",
"X. c #E1E1E1",
"XX c #656564",
"Xo c #4B3119",
"XO c #FFFFDA",
"X+ c #80532C",
"X@ c #636362",
"X# c #2A2A2A",
"X$ c #FDFD04",
"X% c #282828",
"X& c #F5A960",
"X* c #8A8A88",
"X= c #FFFFDD",
"X- c #FED39A",
"X; c #161616",
"X: c #101010",
"X> c #C1C1C1",
"X, c #FDB56E",
"X< c #EAEAE9",
"X1 c #FECE93",
"X2 c #AB6F3B",
"X3 c #B3B3B3",
/* pixels */
".R.R.R.R.R.R.R.R.R.R.R.R.R.R.R.R.R.R.R.R.R.R",
".R.R.R.R.R.R.R.R.R.R.R.R.R.R.R.R.R.R.R.R.R.R",
".R.R.R.R.R.R.R.R.R.R.R.R.R.R.R.R.R.R.R.R.R.R",
".R.R.R.R.R.R.R.R.R.R.R.R.R.R.R.R.R.R.R.R.R.R",
".R.R.R.R.R.R.R.R.R.R.R.R.R.R.R._ F A.R.R.R.R",
".R.R.R.R.R.R.R.R.R.R.R.R.R.R.R (.-.[ A.R.R.R",
".R.R & x x.2.R.R.R.R._ F A.R.R.E.(X3 K.R._ F",
".R.L.H ^ @.Z.L.R.R.R.( d 9  ._.E._  .n.E.(X>",
".L.p.&X-X1 h Y.L m m q.(.E._X XOX ._.E.- #.+",
".L.h.k.c ^ 1.B * * *X&.N.( BXOXOXO B |.q.=.[",
".L i.r 3 [X+Xo.D.D.D.T.`.( BXOXOXO B Q      ",
".L i.aX, '.M./.^./.) I.(.#._.'X=X ._.E Q 2 T",
".L w.e.6.D 6.] RX..3 s.# S  .o.E._  .n.E.(X;",
".L } {X2.M H XX<.@.}._ c V.~ GX$ !X@ ` 4._.+",
".L.b.O.:.w.5.,.%.* u.8.C.x.Q a ( LX* ZXX  X>",
".L W ].M + > o.; X.1 g 8.i.U.z._ J.d.W = A F",
".L ..D.>.t >.1 $.3.5 <.t 0.l y.A D M -.y.R.R",
".L l.M.0.X.0 > , < z 6.f.j.v a.C ) t.$.R.R.R",
".L.Y.>.v N n v.J 8.s.g C.v a.V E.P.|  .R.R.R",
" %.7 6.m.v r C.j e r.v p P f.S.K.! O.R.R.R.R",
".  7.9.F j U U U E k.G 5 b.IX*.~ :.u.R.R.R.R",
"...{ /.< O ~ ~ ~ O.< /X#X% _.4 ;X:.R.R.R.R.R"
};
