/* XPM */
const char *gear_xpm[] = {
/* width height ncolors chars_per_pixel */
"16 16 8 1",
/* colors */
"  c #000000",
". c None",
"X c #A0A0A0",
"o c #808080",
"O c #585858",
"+ c none",
"@ c #303030",
"# c #C3C3C3",
/* pixels */
".........  .....",
".......  o#@ ...",
".....  @@OOoo@..",
".... OOXXoooXo .",
"... @o#o@ooXXo .",
".. OX#@   XX#+o ",
".. o#@ ..@X#X  .",
". OXo .. X##+O .",
". o#@ . ###### .",
" XX#o @###+O  ..",
" OX#####+++# ...",
" o####+++@OX ...",
". X+#+X++O  ....",
".. OX+ ##o .....",
"...  o    ......",
".....  ........."
};
