/* XPM */
const char *import_xpm[]={
"16 16 68 2",
"Qt c None",
".q c #404040",
".F c #585858",
".a c #6e6e6e",
".x c #757575",
".c c #777777",
".o c #7a7a7a",
".V c #7c7c7c",
".g c #7f7f7f",
".1 c #898989",
".Z c #919191",
".w c #999999",
".U c #9a9a9a",
"## c #9d9d9d",
".4 c #9e9e9e",
".X c #a2a2a2",
".S c #a4a4a4",
".2 c #adadad",
".D c #b4b4b4",
".K c #b5b5b5",
"#a c #bababa",
".9 c #c0c0c0",
".j c #c1b1b1",
".k c #c2b8b8",
".s c #c4b1b1",
".l c #c4c4c4",
".6 c #c7c7c7",
".J c #c8c8c8",
".t c #c9c9c9",
".m c #cbcbcb",
".E c #cccccc",
".O c #cd8888",
".N c #d0d0d0",
".R c #d3d3d3",
".W c #d4d4d4",
".u c #d7d7d7",
".H c #d89d9d",
".3 c #d8d8d8",
".r c #d9bebe",
".i c #dacbcb",
".h c #dacdcd",
".7 c #dadada",
".5 c #dddddd",
".P c #dedede",
".T c #dfdfdf",
".L c #e1e1e1",
".8 c #e4e4e4",
".Y c #e5e5e5",
".A c #e6e6e6",
".z c #e8bfbf",
".G c #e8e8e8",
"#. c #eaeaea",
".d c #ebebeb",
".y c #ecadad",
".B c #ececec",
".e c #ededed",
".b c #eeeeee",
".C c #efefef",
".v c #f0f0f0",
".I c #f1f1f1",
"#b c #f3f3f3",
".p c #f6f6f6",
".Q c #f8f8f8",
".0 c #fcfcfc",
".M c #fdfdfd",
".n c #fefefe",
".# c #ff0000",
".f c #ffffff",
"QtQtQtQt.#.#.#.#QtQtQtQtQtQtQt.a",
"QtQtQtQt.#.#.#.#QtQtQtQtQtQtQt.a",
"QtQtQtQt.#.#.#.#.b.b.b.b.b.b.b.c",
"QtQtQtQt.#.#.#.#.d.d.d.d.d.e.f.g",
"QtQt.h.i.#.#.#.#.j.k.l.l.l.m.n.o",
"QtQt.#.#.#.#.#.#.#.#.f.f.f.f.p.q",
"QtQt.r.#.#.#.#.#.#.s.t.u.f.v.w.x",
"QtQt.b.y.#.#.#.#.z.A.A.B.C.D.E.F",
"Qt.G.A.A.#.#.#.H.A.v.f.I.J.K.E.F",
".L.M.N.t.t.#.O.t.t.P.Q.R.S.T.U.V",
".f.f.f.f.f.f.f.f.f.f.W.X.Y.Z.0.a",
".1.1.1.1.1.1.1.1.1.1.2.3.4.I.5.a",
".3.3.3.3.3.3.3.3.3.3.6.D.7.8Qt.a",
".l.l.l.l.l.l.l.l.l.l.9.6#.QtQt.a",
"#####################a.CQtQtQt.a",
".f.f.f.f.f.f.f.f.f.f#bQtQtQtQt.a"};
