/* XPM */
const char *ksmiletris_xpm[]={
"22 22 371 2",
"Qt c None",
"ak c #0d0c08",
"ap c #12120d",
"#1 c #1f1f15",
"#6 c #2e2e18",
"aq c #313115",
"#7 c #33331b",
"cb c #353414",
"b# c #38361c",
"bu c #38361d",
"bP c #38371b",
"dS c #39361a",
"dR c #39361b",
"aS c #39361c",
"dT c #3b361a",
"#H c #3f3e26",
"#M c #3f3f21",
"cv c #424018",
"cJ c #424123",
"cD c #44411a",
"aj c #454520",
".f c #49481f",
"cO c #4a4820",
"#h c #4a4826",
".d c #4a491e",
".e c #4a491f",
".c c #4c491e",
"#N c #4f4e25",
"ax c #514f3a",
"dU c #515037",
"cU c #53501a",
"b6 c #54511c",
"#0 c #54542b",
".t c #545455",
"dO c #555455",
"#z c #555555",
"cT c #565325",
"dF c #575750",
".g c #5b5a3d",
"dd c #5c5a38",
"cP c #5d5a20",
"cl c #5d5a24",
"dE c #5d5b3a",
".j c #5d5c51",
"cS c #5f5b27",
"#f c #605e3b",
"cR c #615e29",
"cQ c #625f28",
"ds c #626046",
"c7 c #64602f",
"#G c #646338",
"cI c #656230",
"c6 c #68652f",
"dN c #68663c",
".Z c #696743",
"#s c #6a672f",
".I c #6b683b",
"#A c #6d6d6e",
"cp c #6e6933",
"#T c #6e6b38",
"dG c #6e6c33",
"cC c #706b2d",
"ck c #706c26",
"c8 c #706c2b",
"ab c #726f33",
"#n c #72704e",
"dH c #757034",
"dM c #757139",
"du c #757336",
"aK c #79752e",
"#2 c #7c7833",
"c1 c #7e7a39",
"bW c #7e7b28",
"bR c #7f7e3e",
"c5 c #817e33",
"de c #817e3d",
"al c #827d2e",
".s c #828040",
"ad c #837f3e",
"aF c #857f32",
"bV c #888330",
".r c #8a8636",
"c9 c #8d8938",
"#5 c #8e8938",
"#I c #8f8c3a",
"ao c #908a38",
"ba c #918e39",
"bK c #928d3a",
"bw c #928e36",
"dQ c #929290",
"aT c #938f36",
".b c #939390",
"#t c #948f39",
"#L c #949038",
".w c #95903c",
"ay c #959139",
"cw c #969138",
"cN c #969232",
".1 c #979344",
".K c #979797",
"cu c #989233",
".L c #989441",
"dt c #989894",
".h c #989898",
".k c #999438",
"c0 c #999994",
"bv c #999998",
".v c #9a9a95",
".0 c #9b9a94",
".a c #9b9b99",
"b7 c #9d9734",
".l c #9d993c",
"cc c #9d9b33",
"dV c #9d9d9a",
"cZ c #9e9b43",
"dL c #9f9c47",
"cV c #a19b3d",
"dD c #a19b42",
"c. c #a29b46",
"aw c #a49d45",
"dc c #a49f4b",
"dW c #a4a4a4",
"#U c #a4a4a5",
"dr c #a7a14c",
"bL c #a7a339",
"bA c #a8a23c",
"cE c #a8a242",
"ac c #a8a8a9",
".i c #a9a9a8",
"bQ c #a9a9a9",
"aL c #aaa541",
"#m c #abab95",
"dv c #aca84d",
"cH c #ada750",
"dC c #aea750",
"cY c #afa94e",
"db c #afaa52",
"cq c #afac42",
"bt c #b0aa4f",
"dq c #b0aa50",
"cG c #b0ab4f",
"bO c #b1aa50",
"b. c #b1ad4e",
"dK c #b2aa4e",
"co c #b2aa4f",
"dJ c #b2aa51",
"dI c #b2aa52",
"b5 c #b2ab41",
"dB c #b2ab4e",
"dp c #b2ac4e",
"dA c #b2ad52",
"b9 c #b3ab51",
"da c #b3ac4f",
"cX c #b3ac50",
"#y c #b3ad4a",
"do c #b3af4e",
"aR c #b4ad51",
"d. c #b5af4a",
"cn c #b5af4f",
"dz c #b5b14e",
"d# c #b6ae4d",
"bN c #b6af4e",
"cW c #b6af50",
"cF c #b6b050",
"dn c #b7b34f",
"bp c #b8b145",
"bs c #b8b150",
"#e c #b8b348",
"b8 c #b8b350",
"cB c #b9b149",
"aE c #b9b448",
"dw c #b9b44f",
"dy c #bab24c",
"cm c #bab450",
"bB c #bbb441",
"bq c #bbb647",
"a9 c #bbb651",
"dx c #bbb652",
"aQ c #bbb753",
"c4 c #bcb447",
"dm c #bcb451",
"bM c #bcb64f",
"dl c #bdb754",
"br c #bdb850",
".J c #bdbdbd",
"cj c #beb644",
"#S c #bfb74d",
"aa c #bfb74f",
"av c #bfb84d",
"dk c #c0ba4c",
"ar c #c1ba49",
"#8 c #c1bc49",
"a8 c #c2ba4f",
"dj c #c2bb4e",
"#B c #c2bd49",
".u c #c2c2c2",
"#g c #c3c3c2",
"di c #c4bc4d",
".H c #c4bd4b",
"aP c #c4bd4e",
"df c #c4bd4f",
"dg c #c4be4f",
"au c #c4be50",
".Y c #c5be4b",
"dh c #c5bf4d",
"#x c #c6bf4e",
"a# c #c7bf4f",
"#R c #c7bf51",
"#O c #c7c049",
"cA c #c8c250",
"bJ c #c8c34f",
"a7 c #c9c14f",
"#r c #c9c24c",
"c2 c #c9c24f",
"c3 c #c9c34b",
"ci c #cac24e",
"at c #cac34e",
"aO c #cac352",
"bo c #cac54e",
"#o c #cac64d",
"b4 c #cbc44f",
"cz c #cbc54d",
".q c #cbc54f",
"ca c #ccc545",
"a6 c #ccc551",
"#d c #ccc64e",
"bI c #ccc64f",
"ch c #ccc650",
"b3 c #ccc651",
"aN c #ccc74e",
"cy c #ccc84d",
"cx c #cdc64c",
"a. c #cdc74f",
"as c #cdc84d",
"bn c #cdc850",
"bH c #cec750",
"#Q c #cec751",
"cd c #cec94b",
"b2 c #cec951",
"cg c #cfc850",
"cM c #cfc94d",
"#w c #cfc94f",
"#u c #d0c951",
"bm c #d0ca4e",
"cf c #d0ca50",
"#9 c #d0cb4d",
"aM c #d0cb4e",
"a5 c #d0cc51",
"## c #d1c74f",
"bX c #d1ca48",
"#P c #d1ca4f",
"be c #d1cb4c",
".X c #d1cc4f",
"b1 c #d1cc51",
"bF c #d2cb4d",
".G c #d2cb52",
"cK c #d2cc4e",
"bG c #d2cc4f",
"ce c #d2cd4f",
"#v c #d2ce4e",
"ct c #d3cc4c",
"#c c #d3cc4f",
"b0 c #d3cd4c",
"cL c #d3cd50",
"bl c #d3ce4e",
"dP c #d3d3d3",
".# c #d4d4d3",
"bZ c #d5cd51",
"cr c #d5ce4f",
"bk c #d5ce50",
"a4 c #d5ce51",
"aJ c #d6ce4f",
"#a c #d6ce50",
"bE c #d6cf52",
"a3 c #d6d04e",
"cs c #d6d050",
"bf c #d7cf45",
"bY c #d7d050",
".W c #d7d150",
"bD c #d7d24f",
"bj c #d8d050",
"#b c #d8d14e",
"bC c #d8d34e",
"aI c #d9d254",
"a2 c #dad250",
"bi c #dbd350",
"bh c #dbd452",
".V c #dcd451",
"a1 c #dcd452",
"c# c #ddd351",
"aH c #ddd452",
".F c #ddd456",
"an c #ddd555",
"aG c #ded654",
"a0 c #ded655",
"am c #ded754",
"#4 c #dfd656",
"bS c #dfd851",
"bg c #e0d750",
"bU c #e0d853",
"aZ c #e0d959",
"#K c #e1d854",
".U c #e1da54",
"bT c #e2d951",
".E c #e2da59",
"#q c #e2db54",
"#. c #e2dc54",
"bz c #e2dd52",
"#3 c #e3dd55",
"by c #e3de54",
"#V c #e4dd53",
".T c #e4de54",
".9 c #e4e054",
"bx c #e5df54",
"aY c #e5df5c",
"bd c #e5e055",
".x c #e6de57",
"#J c #e6df5b",
".D c #e6e054",
".p c #e6e057",
".S c #e6e154",
"bb c #e7e254",
"bc c #e7e257",
".o c #e8e257",
"#p c #e8e25e",
".C c #e8e354",
"aX c #e9e25f",
"aW c #e9e360",
"ai c #e9e48c",
"aD c #eae367",
".6 c #eae7a1",
".R c #ebe564",
".n c #ece656",
"aV c #ece65a",
".8 c #ece667",
"#Z c #ececb7",
".B c #ede55b",
"aU c #ede654",
"#F c #ededd8",
"ae c #eee656",
".m c #eee659",
"az c #eee756",
"aC c #efe974",
".A c #f0e85b",
"aA c #f0e866",
".z c #f1ea62",
"aB c #f2ea75",
"#i c #f4ec5c",
".7 c #f4ed7b",
".M c #f4ee62",
".2 c #f4ee66",
".Q c #f5ed74",
".y c #f5ee5f",
"af c #f6ef74",
".5 c #f6f6cc",
"#l c #f7f7e8",
"#C c #f8f16c",
"#W c #faf478",
".N c #fbf57e",
".P c #fbf68c",
".3 c #fbf79b",
"#j c #fcf891",
".O c #fcf894",
"ag c #fcf9a1",
"ah c #fdf8a2",
"#D c #fdfcba",
".4 c #fdfcc9",
"#X c #fefdb9",
"#k c #fefdda",
"#Y c #fefecd",
"#E c #fefee8",
"QtQtQtQtQtQt.#.a.b.c.d.e.f.g.h.iQtQtQtQtQtQt",
"QtQtQtQtQt.h.j.k.l.m.n.o.p.q.r.s.t.uQtQtQtQt",
"QtQtQtQt.v.w.x.y.z.A.B.C.D.E.F.G.H.I.JQtQtQt",
"QtQtQt.K.L.M.N.O.P.Q.R.S.T.U.V.W.X.Y.Z.JQtQt",
"QtQt.0.1.2.3.4.5.6.7.8.9#.###a#b#c#d#e#f#gQt",
"QtQt#h#i#j#k#l#m#n#o#p#q#r#s#t#u#v#w#x#y#zQt",
"Qt#A#B#C#D#E#F#G#H#I#J#K#L#M#N#O#P#Q#R#S#T#U",
"Qt.t#V#W#X#Y#Z#0#1#2#3#4#5#6#7#8#9a.a#aaab.h",
"acadaeafagahaiajakalamanaoapaqarasatauavawax",
".hayazaAaBaCaDaEaFaGaHaIaJaKaLaMaNaOaPaQaRaS",
".haTaUaVaWaXaYaZa0a1a2a3#aa4a5#wa6a7a8a9b.b#",
".hbabbbcbdbebfbgbhbibjbkblbmbnbobpbqbrbsbtbu",
"bvbwbxbybzbAbBaGbCbDbEbFbGbHbIbJbKbLbMbNbObP",
"bQbRbSbTbUbVbWbXbYbZb0b1b2b3b4b5b6b7b8b9c.ax",
"Qt.tbIc#aHcacbcccdcecfcgchcicjckclcmcncocp.h",
"Qt#AcqcrcsctcucvcwcxcyczcAcBcCcDcEcFcGcHcI#U",
"QtQtcJcfcKcLcMcNcOcPcQcRcScTcUcVcWcXcYcZ.tQt",
"QtQtc0c1c2bI#dc3c4c5c6c7c8c9d.d#dadbdcdd.uQt",
"QtQtQt.Kdedfdgdhdidjdkdldmdndodpdqdrds.JQtQt",
"QtQtQtQtdtdudvdwdxcmdydzaRdAdBdCdDdE.JQtQtQt",
"QtQtQtQtQt.hdFdGdHdadIdJdKdLdMdNdO.uQtQtQtQt",
"QtQtQtQtQtQtdP.hdQdRdRdSdTdUdVdWQtQtQtQtQtQt"};
