/* XPM */
const char *left2arrow_xpm[] = {
/* width height ncolors chars_per_pixel */
"22 22 60 1",
/* colors */
"  c #000000",
". c #B1B1B1",
"X c #A5A5A5",
"o c #A1A1A1",
"O c #979797",
"+ c #959595",
"@ c #939393",
"# c #919191",
"$ c #8D8D8D",
"% c #898989",
"& c #858585",
"* c #838383",
"= c #7B7B7B",
"- c #6B6B6B",
"; c #696969",
": c #616161",
"> c #5F5F5F",
", c #535353",
"< c #434343",
"1 c #EEEEEE",
"2 c #393939",
"3 c #373737",
"4 c #353535",
"5 c #191919",
"6 c #111111",
"7 c #0D0D0D",
"8 c #0B0B0B",
"9 c #050505",
"0 c #030303",
"q c #010101",
"w c #B0B0B0",
"e c #A2A2A2",
"r c #9C9C9C",
"t c #989898",
"y c #969696",
"u c #909090",
"i c #8E8E8E",
"p c #868686",
"a c #848484",
"s c #727272",
"d c #686868",
"f c #646464",
"g c #626262",
"h c #606060",
"j c #5E5E5E",
"k c #585858",
"l c #545454",
"z c none",
"x c #4C4C4C",
"c c #4A4A4A",
"v c #3E3E3E",
"b c #3A3A3A",
"n c #323232",
"m c #101010",
"M c #C1C1C1",
"N c #0A0A0A",
"B c #060606",
"V c #040404",
"C c #B5B5B5",
"Z c #020202",
/* pixels */
"zzzzzzzzzzzzzzzzzzzzzz",
"zzzzzzzzzzzzzzzzzzzzzz",
"zzzzzzzzznqzzzzzzzznqz",
"zzzzzzzzncVzzzzzzzncVz",
"zzzzzzznO=VzzzzzznO=Vz",
"zzzzzzn@1d0zzzzzn@1d0z",
"zzzzznrz.jBzzzznrz.jBz",
"zzzznrzMrg zzznrzMrg z",
"zzzntzMo@g zzntzMo@g z",
"zznXzMXup: znXzMXup: z",
"zn+1Mo#aah n+1Mo#aah z",
"z8lsaey**> 8lsaey**> z",
"zzm<-&eyi> zm<-&eyi> z",
"zzzm3;$Cyj zzm3;$Cyj z",
"zzzz62-%w>5zzz62-%w>5z",
"zzzzzmbf-,9zzzzmbf-,9z",
"zzzzzzm4kx0zzzzzm4kx0z",
"zzzzzzz72v0zzzzzz72v0z",
"zzzzzzzz8nZzzzzzzz8nZz",
"zzzzzzzzzN zzzzzzzzN z",
"zzzzzzzzzzzzzzzzzzzzzz",
"zzzzzzzzzzzzzzzzzzzzzz"
};
