/* XPM */
const char *longer_xpm[] = {
/* width height ncolors chars_per_pixel */
"22 22 71 1",
/* colors */
"  c #000000",
". c #0D3652",
"X c #D3E5F0",
"o c #15C1DA",
"O c #1CA2C3",
"+ c #1B415C",
"@ c #1A415B",
"# c #0E97BF",
"$ c #7FBDD5",
"% c #7BC6DE",
"& c #0E9DC2",
"* c #59C3DA",
"= c #5FC0D6",
"- c #0E8BAE",
"; c #BCE2EC",
": c #0EADCB",
"> c #40D1DB",
", c #7CC9DE",
"< c #DDEFF8",
"1 c #FDFCFD",
"2 c #0E95B7",
"3 c #26C3D5",
"4 c #0E91B7",
"5 c #A7D7E7",
"6 c #48DFE9",
"7 c #137194",
"8 c #0E87A9",
"9 c #0EB0CD",
"0 c #CEE9F2",
"q c #A9CDDE",
"w c #254A63",
"e c #0E94B9",
"r c #010101",
"t c #0E3753",
"y c #8FCCE2",
"u c #80B6D0",
"i c #DFEBF5",
"p c #24A9CB",
"a c #3DB9D3",
"s c #DFEFF8",
"d c #14678D",
"f c #106589",
"g c #337F9E",
"h c #B5DEEC",
"j c #0E91B8",
"k c #6BBED8",
"l c #98C7D9",
"z c #8FCADA",
"x c #96C3D7",
"c c #94C1D5",
"v c #CDE1EC",
"b c #0F90B5",
"n c none",
"m c #FEFBFE",
"M c #E1EBF2",
"N c #0E9FC4",
"B c #BCDEEB",
"V c #17ABD0",
"C c #116C92",
"Z c #DCEDF3",
"A c #20C2D5",
"S c #30536B",
"D c #1F779C",
"F c #0E8FB6",
"G c #0E9EC3",
"H c #44C0D7",
"J c #C0DFEE",
"K c #46DBE6",
"L c #0D3D5C",
"P c #DAEDF7",
"I c #010001",
/* pixels */
"nnnnnnnnnnnnnnnnnnnnnn",
"nnnnnnnnnnnnnnnnnnnnnn",
"nnnnnnnnnn.nnnnnnnnnnn",
"nnnnnnnnnnLInnnnnnnnnn",
"nnnnnnnnnnLgInnnnn  nn",
"nnnnnnnnnnLugInnnn  nn",
"nnnnnnnnnnLlsgrnnn  nn",
"nnn......@Lxq1gInn  nn",
"nnntcPmmmmJ5*Z1gIn  nn",
"nnnwvz;0h%k:N*Z1gI  nn",
"nnnSM$a=H:pj4G*B<g  nn",
"nnn+i,28-e&F##*6Of  nn",
"nnn.XyA>K3ooVo6OfI  nn",
"nnn.DdddC7b#o6OfIn  nn",
"nnn.IIIIIIL96OfInn  nn",
"nnnnnnnnnnLOOfInnn  nn",
"nnnnnnnnnnLgfInnnn  nn",
"nnnnnnnnnnLfInnnnn  nn",
"nnnnnnnnnnLInnnnnnnnnn",
"nnnnnnnnnnLnnnnnnnnnnn",
"nnnnnnnnnnnnnnnnnnnnnn",
"nnnnnnnnnnnnnnnnnnnnnn"
};
