/* XPM */
const char * marvin_logo_xpm[] = {
"59 20 228 2",
"  	c None",
". 	c #56569A",
"+ 	c #4343B1",
"@ 	c #3030C4",
"# 	c #3737C4",
"$ 	c #3F3FCD",
"% 	c #3D3DB8",
"& 	c #42429F",
"* 	c #3E3EB4",
"= 	c #6A6AFC",
"- 	c #7272FF",
"; 	c #7171FF",
"> 	c #6969EF",
", 	c #2A2A69",
"' 	c #202059",
") 	c #323289",
"! 	c #5959B4",
"~ 	c #303052",
"{ 	c #020204",
"] 	c #000000",
"^ 	c #19192E",
"/ 	c #7C7CE9",
"( 	c #7A7AFD",
"_ 	c #242452",
": 	c #030305",
"< 	c #171721",
"[ 	c #3F3F5B",
"} 	c #010101",
"| 	c #343434",
"1 	c #3C3CDF",
"2 	c #29293A",
"3 	c #696989",
"4 	c #9292E5",
"5 	c #080811",
"6 	c #4D4D58",
"7 	c #09090A",
"8 	c #1D1D23",
"9 	c #7C7C7D",
"0 	c #181818",
"a 	c #0B0B0B",
"b 	c #454545",
"c 	c #D9D9FF",
"d 	c #3B3B6B",
"e 	c #1B1B20",
"f 	c #71717C",
"g 	c #060607",
"h 	c #606066",
"i 	c #B9B9E2",
"j 	c #08080E",
"k 	c #707080",
"l 	c #D7D7DF",
"m 	c #3A3A40",
"n 	c #161618",
"o 	c #0A0A0A",
"p 	c #373737",
"q 	c #393939",
"r 	c #EEEEEE",
"s 	c #050505",
"t 	c #505050",
"u 	c #D6D6EE",
"v 	c #0D0D15",
"w 	c #7F7FA8",
"x 	c #E6E6FA",
"y 	c #1F1F23",
"z 	c #616166",
"A 	c #C9C9E2",
"B 	c #09090E",
"C 	c #8B8B98",
"D 	c #ECECFF",
"E 	c #8080A5",
"F 	c #767676",
"G 	c #757575",
"H 	c #0C0C0C",
"I 	c #585858",
"J 	c #FBFBFB",
"K 	c #676767",
"L 	c #525252",
"M 	c #B7B7CA",
"N 	c #000001",
"O 	c #3A3A43",
"P 	c #44444D",
"Q 	c #1A1A24",
"R 	c #5D5D66",
"S 	c #CBCBE2",
"T 	c #8B8B99",
"U 	c #DFDFFF",
"V 	c #9C9CF3",
"W 	c #131321",
"X 	c #242424",
"Y 	c #F6F6F6",
"Z 	c #7D7D7D",
"` 	c #090909",
" .	c #E0E0E0",
"..	c #AEAEAE",
"+.	c #0D0D0D",
"@.	c #C9C9DC",
"#.	c #0A0A0F",
"$.	c #2C2C31",
"%.	c #1B1B24",
"&.	c #22222C",
"*.	c #D3D3EC",
"=.	c #41415E",
"-.	c #3C3C55",
";.	c #9898A8",
">.	c #DADAFF",
",.	c #9A9AFF",
"'.	c #323264",
").	c #ACACAC",
"!.	c #FFFFFF",
"~.	c #6D6D6D",
"{.	c #E6E6E6",
"].	c #060606",
"^.	c #565656",
"/.	c #B4B4B4",
"(.	c #4E4E4E",
"_.	c #E8E8FF",
":.	c #7777A5",
"<.	c #14141C",
"[.	c #1F1F22",
"}.	c #8B8B92",
"|.	c #E7E7FF",
"1.	c #D6D6FF",
"2.	c #DBDBFF",
"3.	c #CDCDFF",
"4.	c #A2A2FF",
"5.	c #A5A5FF",
"6.	c #D1D1FF",
"7.	c #D3D3FE",
"8.	c #9191FF",
"9.	c #5F5FC9",
"0.	c #272750",
"a.	c #F9F9F9",
"b.	c #E8E8E8",
"c.	c #030303",
"d.	c #020202",
"e.	c #1A1A1A",
"f.	c #919191",
"g.	c #B3B3B3",
"h.	c #4D4D4D",
"i.	c #EBEBFF",
"j.	c #B2B2FF",
"k.	c #9B9BF9",
"l.	c #B9B9ED",
"m.	c #DFDFFD",
"n.	c #B5B5FF",
"o.	c #A4A4FF",
"p.	c #9595FF",
"q.	c #8282FF",
"r.	c #8585FF",
"s.	c #BFBFFE",
"t.	c #E0E0FE",
"u.	c #8C8CFF",
"v.	c #6767EF",
"w.	c #5353BD",
"x.	c #292929",
"y.	c #595959",
"z.	c #3F3F3F",
"A.	c #212121",
"B.	c #939393",
"C.	c #B1B1B1",
"D.	c #5F5F5F",
"E.	c #F6F6FF",
"F.	c #ADADFF",
"G.	c #8383FF",
"H.	c #9090FF",
"I.	c #9999FE",
"J.	c #8484FF",
"K.	c #7878FF",
"L.	c #7474FF",
"M.	c #B1B1FE",
"N.	c #DBDBFE",
"O.	c #9393FF",
"P.	c #4A4AD1",
"Q.	c #575757",
"R.	c #808080",
"S.	c #949494",
"T.	c #1B1B1B",
"U.	c #9A9A9A",
"V.	c #A7A7FF",
"W.	c #7979FF",
"X.	c #7777FF",
"Y.	c #7676FE",
"Z.	c #7272FE",
"`.	c #B0B0FE",
" +	c #D9D9FE",
".+	c #C9C9FE",
"++	c #6262D4",
"@+	c #55559C",
"#+	c #232323",
"$+	c #171717",
"%+	c #E7E7E7",
"&+	c #C5C5C5",
"*+	c #0F0F0F",
"=+	c #E2E2E2",
"-+	c #C9C9C9",
";+	c #FAFAFA",
">+	c #4A4AEE",
",+	c #6A6AFF",
"'+	c #BABAFE",
")+	c #D6D6FE",
"!+	c #5252AB",
"~+	c #F4F4F4",
"{+	c #4C4C4C",
"]+	c #0E0E0E",
"^+	c #EAEAEA",
"/+	c #B0B0B0",
"(+	c #C4C4C4",
"_+	c #2B2BEC",
":+	c #6C6CFF",
"<+	c #9494FE",
"[+	c #9A9AFD",
"}+	c #7777C7",
"|+	c #3C3CCE",
"1+	c #E9E9E9",
"2+	c #2A2A2A",
"3+	c #EFEFEF",
"4+	c #3C3CE7",
"5+	c #3838FE",
"6+	c #3B3BF3",
"7+	c #3939F3",
"8+	c #4646D4",
"9+	c #4040B7",
"0+	c #656565",
"a+	c #1D1D1D",
"b+	c #D4D4D4",
"c+	c #222222",
"d+	c #848484",
"e+	c #DFDFDF",
"                                                                                                                      ",
"                                                  . + @ # $ %                                                         ",
"                                              % & * = - ; > , ' )                                                     ",
"                                            ! ~ { ] ^ / ( _ ] ] : < [         }                                       ",
"                                ] ] ] |   1 2 ] ] ] ] 3 4 5 ] ] 6 7 8 9 0     ] a                                     ",
"                                ] ] ] b c d ] e f g ] h i j ] k l m g n ] o   p q r                                   ",
"                          } s } ] ] ] t u v ] w x y ] z A B ] C D E ] ] } F G H I J                                   ",
"                        ] ] ] ] K a ] L M N ] O P Q ] R S B ] T U V W ] X Y Z ] `  .                                  ",
"                      ] ] ] ] ] ..+.] t @.#.] ] $.%.&.T *.=.-.;.>.,.'.} ).!.~.] a {.                                  ",
"                      ] ].^.] ] /.H ] (._.:.<.[.}.|.1.2.3.4.5.6.7.8.9.0.a.!.(.] a b.).c.d.                            ",
"                    ] ] e.f.] ] g.H ] h.i.j.k.l.m.1.n.o.p.q.r.s.t.u.v.w.    x.] a b.y.] ] ] z.                        ",
"                    } ] A.B.] ] C.H ] D.E.F.G.H.4.I.J.K.L.- M.N.N.O.P.        ] a b.Q.] } o } R.                      ",
"                    d.] X S.] ] C.T.U.!.!.V.W.L.X.Y.Z.; K.`. +N..+++@+        #+$+%+^.] +.&+] *+=+                    ",
"                    d.] X S.] ] -+;+!.!.    >+,+; ; ; ; '+N.N.)+L.!+              ~+{+] ]+^+] } /+                    ",
"                    d.] X S.#+(+!.!.          _+:+; ; ; L.<+[+}+|+                    ]++.1+] ] /+!.                  ",
"                    d.] 2+3+!.!.!.                4+5+6+7+8+9+                          0+{.] ] /+!.                  ",
"                    d.a+b+!.!.                                                              c+] /+!.                  ",
"                        !.!.                                                                  d+e+!.                  ",
"                                                                                                                      ",
"                                                                                                                      "};
