/* XPM */
const char *month_xpm[] = {
/* width height ncolors chars_per_pixel */
"22 22 144 2",
/* colors */
"   c #000000",
" . c #7D7CA9",
" X c #FAF7F2",
" o c #7C7CA8",
" O c #0000C0",
" + c #0000D7",
" @ c #B9B6B2",
" # c #A6A5D1",
" $ c #8C8BC8",
" % c #FBF9F6",
" & c #0000EE",
" * c #C6C5E3",
" = c #BCBAB8",
" - c #BBBAB7",
" ; c #3E3D99",
" : c #FEFDFC",
" > c #00009B",
" , c #F7F2EB",
" < c #0000B2",
" 1 c #0000C9",
" 2 c #7C7BA7",
" 3 c #00008A",
" 4 c #F8F4EF",
" 5 c #0000E0",
" 6 c #5352AD",
" 7 c #BAB7B2",
" 8 c #0000A1",
" 9 c #A6A4D0",
" 0 c #FBF8F5",
" q c #0000F7",
" w c #FAF8F4",
" e c #00008D",
" r c #0000B8",
" t c #FDFCFA",
" y c #0000CF",
" u c #0000E6",
" i c #BCBBBA",
" p c #0000FD",
" a c #000093",
" s c #7C7AA6",
" d c #F9F5EF",
" f c #5351AC",
" g c #0000AA",
" h c #FAF7F3",
" j c #0000C1",
" k c #9190AD",
" l c #151590",
" z c #C4C3DF",
" x c #BAB8B4",
" c c #FDFBF9",
" v c #FCFBF8",
" b c #FBF9F7",
" n c #0000EF",
" m c #BDBCBA",
" M c #0000B0",
" N c #BCBAB9",
" B c #3F3F9B",
" V c #FEFDFD",
" C c #FDFDFC",
" Z c #00009C",
" A c #0000C7",
" S c #0000B3",
" D c #0000DE",
" F c #0000F5",
" G c #FAF6F2",
" H c #F9F6F1",
" J c #00008B",
" K c #5352AE",
" L c #BAB7B3",
" P c #0000A2",
" I c #FCFAF7",
" U c #A0A0A0",
" Y c #C6C6E3",
" T c #0000B9",
" R c #BBB9B7",
" E c #A8A8D6",
" W c #BAB9B6",
" Q c #3F3E9A",
" ! c #3E3E99",
" ~ c #FDFCFB",
" ^ c #0000D0",
" / c #BDBDBC",
" ( c #0000E7",
" ) c #5454A1",
" _ c #6968A5",
" ` c #000094",
" ' c #F9F5F0",
" ] c #F8F5EF",
" [ c #0000AB",
" { c #5251AC",
" } c #3939A4",
" | c #0000D6",
".  c #A7A5D1",
".. c #B9B6B1",
".X c #FBF9F5",
".o c #7171BD",
".O c #0000C2",
".+ c #0000ED",
".@ c #C5C3E1",
".# c #BAB8B5",
".$ c #0000D9",
".% c #3E3D98",
".& c #FDFBFA",
".* c #FCFBF9",
".= c #00009A",
".- c #E1E1EF",
".; c #A8A8B7",
".: c #BDBCBB",
".> c none",
"., c #6867A3",
".< c #0000C8",
".1 c #F8F4EE",
".2 c #0000DF",
".3 c #5352AC",
".4 c #A6A4CF",
".5 c #FBF8F4",
".6 c #0000F6",
".7 c #F9F6F2",
".8 c #00008C",
".9 c #9191AD",
".0 c #C3C2DE",
".q c #2A2A2A",
".w c #BAB7B4",
".e c #A7A6D3",
".r c #0000A3",
".t c #8C8CC9",
".y c #FCFAF8",
".u c #0000BA",
".i c #BDBBBA",
".p c #BCBBB9",
".a c #3F3E9B",
".s c #3E3E9A",
".d c #FEFEFD",
".f c #0000D1",
".g c #53529E",
".h c #0000FC",
".j c #6766A1",
".k c #000092",
".l c #F8F3ED",
".z c #0000E8",
".x c #F7F3EC",
".c c #0000A9",
".v c #0000FF",
".b c #6868A5",
/* pixels */
".>.>.>.>.>.>.>.>.>.>.>.>.>.>.>.>.>.>.>.>.>.>",
".>                                  .q.>.>.>",
".>  .v.v q n.z 5.$.f 1.O.u S [.r Z ` e  .>.>",
".>  .v p.6 & (.2 + ^.< j T < g P > a.8 U  .>",
".>  .v.h F.+ u D | y A O r M.c 8.=.k 3 U  .>",
".>   v.* t.: ~ ~ t.*.p I % 0 w.#.7 ' d U  .>",
".>  .* t ~ / : C ~ t i.y b.X.5.# G H d U  .>",
".>  .i.: /.; ) B B _.i N =.9., ;.j.w L U  .>",
".>  .& ~ * J }.d.o J _ v I.0 K J 6 H ' U  .>",
".>   c ~.- l Y V E J Q.y I %.  J 6 H ' U  .>",
".>  .* t ~ / : C.t J.b.y b.X.  J 6 H d U  .>",
".>  .p i m.: l.a J.s.p = - R 2 J.% L 7 U  .>",
".>   I v.*.i.@ c $ J . b % 0 9 J 6 ' 4 U  .>",
".>   b I.y N v.y.y J J % 0 w 9 J 6 '.1 U  .>",
".>   % %.e J z I b J J 0 w h.4 J f ].1 U  .>",
".>   R R., J ! - o J.g W.# x s J.%.... U  .>",
".>   h w.5 k K K K #.# h X 6.3.% { {.l U  .>",
".>   X h h.# h h h h x G H ' ' @.1.l.x U  .>",
".>   H.7 G x X X G.7.w H ' d 4...l.x , U  .>",
".>.>   U U U U U U U U U U U U U U U U U  .>",
".>.>.>                                    .>",
".>.>.>.>.>.>.>.>.>.>.>.>.>.>.>.>.>.>.>.>.>.>"
};
