/* XPM */
const char *newpage_xpm[]={
"22 22 3 1",
". c None",
"# c #000000",
"a c #ffffff",
"......................",
"......................",
"......................",
"......########........",
"......#aaaaaaa#.......",
"......#aaaaaaa##......",
"......#aaaaaaa###.....",
"......#aaaaaaa####....",
"......#aaaaaaaaaa#....",
"......#aaaaaaaaaa#....",
"......#aaaaaaaaaa#....",
"......#aaaaaaaaaa#....",
"......#aaaaaaaaaa#....",
"......#aaaaaaaaaa#....",
"......#aaaaaaaaaa#....",
"......#aaaaaaaaaa#....",
"......#aaaaaaaaaa#....",
"......#aaaaaaaaaa#....",
"......############....",
"......................",
"......................",
"......................"};
