/* XPM */
const char *print_xpm[] = {
/* width height ncolors chars_per_pixel */
"22 22 178 2",
/* colors */
"   c #000000",
" . c #F0E8DB",
" X c #AFAFAF",
" o c #A7A7A7",
" O c #ECDFCD",
" + c #A3A3A3",
" @ c #9D9D9D",
" # c #F5F3F0",
" $ c #EFE3D3",
" % c #999999",
" & c #979797",
" * c #959595",
" = c #919191",
" - c #8B8B8B",
" ; c #E8D3B8",
" : c #858585",
" > c #F3EEE7",
" , c #ECDEC9",
" < c #818181",
" 1 c #F1E7DB",
" 2 c #7B7B7B",
" 3 c #797979",
" 4 c #EEE5D8",
" 5 c #E8D5BB",
" 6 c #717171",
" 7 c #6D6D6D",
" 8 c #F1E9DE",
" 9 c #E4C7A3",
" 0 c #00FF00",
" q c #616161",
" w c #EBE0CE",
" e c #5F5F5F",
" r c #F2EBE2",
" t c #F8F6F5",
" y c #F7F6F4",
" u c #4F4F4F",
" i c #594F45",
" p c #FEFEFE",
" a c #F3EDE6",
" s c #050403",
" d c #E4CBA9",
" f c #494949",
" g c #F8F8F8",
" h c #454545",
" j c #F6F6F6",
" k c #414141",
" l c #3F3F3F",
" z c none",
" x c #ECDFCB",
" c c #EAEAEA",
" v c #373737",
" b c #353535",
" n c #E6E6E6",
" m c #008700",
" M c #333333",
" N c #DCDCDC",
" B c #DADADA",
" V c #B79A6F",
" C c #E7DBC9",
" Z c #625B57",
" A c #D6D6D6",
" S c #E4C8A5",
" D c #D4D4D4",
" F c #D0D0D0",
" G c #EEE3D3",
" H c #E7CFB5",
" J c #CCCCCC",
" K c #CACACA",
" L c #F4EEE6",
" P c #C6C6C6",
" I c #E4CAA8",
" U c #F7F7F6",
" Y c #BEBEBE",
" T c #EDE3D5",
" R c #BCBCBC",
" E c #BABABA",
" W c #F4F0E9",
" Q c #B6B6B6",
" ! c #B4B4B4",
" ~ c #AEAEAE",
" ^ c #E7D3BB",
" / c #ACACAC",
" ( c #F6F2EE",
" ) c #AAAAAA",
" _ c #EEE0CF",
" ` c #A6A6A6",
" ' c #A4A4A4",
" ] c #B7996E",
" [ c #A2A2A2",
" { c #F1E9DF",
" } c #A0A0A0",
" | c #E8D7BF",
".  c #9C9C9C",
".. c #F6F4F1",
".X c #989898",
".o c #969696",
".O c #E6CEB3",
".+ c #F3EDE4",
".@ c #929292",
".# c #8E8E8E",
".$ c #F7F6F5",
".% c #888888",
".& c #868686",
".* c #848484",
".= c #E8C08D",
".- c #F3EFE7",
".; c #828282",
".: c #808080",
".> c #7C7C7C",
"., c #7A7A7A",
".< c #333331",
".1 c #F5F1EC",
".2 c #4F4928",
".3 c #707070",
".4 c #907F0B",
".5 c #6A6A6A",
".6 c #666666",
".7 c #F6F3F0",
".8 c #646464",
".9 c #EBDFCE",
".0 c #F3ECE3",
".q c #5C5C5C",
".w c #D7D178",
".e c #B9B24A",
".r c #E8D8C1",
".t c #565656",
".y c #F6F5F3",
".u c #EEEEEE",
".i c #F4EEE7",
".p c #FDFDFD",
".a c #393836",
".s c #E9DAC5",
".d c #E8D8C4",
".f c #E6D8C2",
".g c #464646",
".h c #F7F7F7",
".j c #EAD7BC",
".k c #444444",
".l c #EEE5D7",
".z c #424242",
".x c #404040",
".c c #3E3E3E",
".v c #EDE0CC",
".b c #3C3C3C",
".n c #E7CEAF",
".m c #EBDECA",
".M c #383838",
".N c #363636",
".B c #F1E9DD",
".V c #F0E7DC",
".C c #4A4543",
".Z c #E5E5E5",
".A c #E9D7BE",
".S c #323232",
".D c #E3E3E3",
".F c #303030",
".G c #E1E1E1",
".H c #F6F2EF",
".J c #DBDBDB",
".K c #D9D9D9",
".L c #D7D7D7",
".P c #D5D5D5",
".I c #D3D3D3",
".U c #575756",
".Y c #CFCFCF",
".T c #EDE2D2",
".R c #CDCDCD",
".E c #CBCBCB",
".W c #C9C9C9",
".Q c #C7C7C7",
".! c #C3C3C3",
".~ c #C1C1C1",
".^ c #F4EFE9",
"./ c #E7C08D",
".( c #B7B7B7",
".) c #B5B5B5",
"._ c #B3B3B3",
".` c #E8D9C6",
/* pixels */
" z z z z z z z z z z.t.F i z z z z z z z z z",
" z z z z z z z z z z.F x x i.a i z z z z z z",
" z z z z z z z z z.2 ,.7.h.h.y x i.F i z z z",
" z z z z z z z z z.t.. U g g.h.y.. a x.< i z",
" z z z z z z z z.2.v g g g g.$ (.1 r w.j   z",
" z z z z z z z z.t g g g g g.H.^ L 4 C I   z",
" z z z z z z z.2.0 # y t y.. >.+ 8.9.f i z z",
" z z z z.N M.z Z _ {.-.^ W.i.0.B $ O I s.2.2",
" z z z f E o.C 9.m T 1.V.B ..l.T.`.A i.4.w.2",
" z z u E ' 6.z ].= d G O.s.d.r ^ ; d  .e.2 z",
" z v E + @ }.8  .t ].= I | 5.O.n H i.4.w.2 z",
"  .u j /. .X % % }.8  .U V./ S 9 d  .e   z z",
".z n c.u p j / *.@.@ % }.8  .t ].z  .w     z",
".t N.G.D.G.Z.u.p j / = = - % }.t   l e.3.,  ",
" h K.Y.L D A.J B.G.u.u j /.%.&.*.;.> : = l  ",
"  .# ~.!.~.Q J.W.R.I.P N.u.u j / <.> - l.k  ",
" z     3.@ o.( ! Y.~ Y.!.E F.K.u j P.b h k  ",
" z z z.z     7 : } X ).) Q._ R.!.~.@ h.M.S.c",
" z z z z z z.z     q.:.o [ ` m 0 /.6.g b   z",
" z z z z z z z z z k    .q 2.@ & =.6.z   z z",
" z z z z z z z z z z z z.x    .q.5.3   z z z",
" z z z z z z z z z z z z z z z.z     z z z z"
};
