/* XPM */
const char *redo_xpm[] = {
/* width height ncolors chars_per_pixel */
"22 22 66 1",
/* colors */
"  c #000000",
". c #79B658",
"X c #9AC589",
"o c #4A8D2D",
"O c #53A82F",
"+ c #5BC930",
"@ c #428525",
"# c #6FD63D",
"$ c #42A01E",
"% c #48B227",
"& c #41AE20",
"* c #7FCC67",
"= c #3A8816",
"- c #51B929",
"; c #63C53E",
": c #CDE2C1",
"> c #7FAA67",
", c #35691B",
"< c #122B06",
"1 c #E5EEDF",
"2 c #15270C",
"3 c #234413",
"4 c #13250A",
"5 c #173807",
"6 c #79BE53",
"7 c #469D24",
"8 c #0B1B05",
"9 c #72C24F",
"0 c #1C4508",
"q c #C8E1BE",
"w c #070D04",
"e c #87C86A",
"r c #060D03",
"t c #8AC963",
"y c #102806",
"u c #F5F9F4",
"i c #15260E",
"p c #13200C",
"a c #102009",
"s c #3FA21C",
"d c #53B529",
"f c #40A513",
"g c #38AA18",
"h c #275F0B",
"j c #081204",
"k c #071003",
"l c #E4ECDF",
"z c #67A050",
"x c #12230A",
"c c #5B973A",
"v c #50932F",
"b c #2B6A0E",
"n c #47AB29",
"m c #91D56B",
"M c #275E0D",
"N c none",
"B c #0E2005",
"V c #3F9524",
"C c #428727",
"Z c #0F1C09",
"A c #C7E0BA",
"S c #41821F",
"D c #4AA721",
"F c #1C4408",
"G c #A7C49A",
"H c #020202",
/* pixels */
"NNNNNNNNNNNNNNNNNNNNNN",
"NNNNNNNNNNNNNNNNNNNNNN",
"NNNNNNhhhhhNNNNNNNNNNN",
"NNNNhhX:1:XhhNNNNNNNNN",
"NNNhXNm6666AuFFNNNNNNN",
"NNh1mnssssDDequ NNNNHN",
"NhXmsd+####+sDtu NNF N",
"NhNsd,b    d#+stu Fl N",
"FX.SbBrNNNNy d#$tGl> N",
"FN=08NNNNNNNN d#$9*z N",
"FfM<NNNNNNNNNN 7-$gV N",
"NF5jNNNNNNNNNNFl;&%O N",
"N FkNNNNNNNNNFlcvoC@ N",
"NNFiNNNNNNNNH        N",
"NNwFZNNNNNNNNNNNNNNNNN",
"NNNaFxNNNNNNNNNNNNNNNN",
"NNNN432NNNNNNNNNNNNNNN",
"NNNNN FpNNNNNNNNNNNNNN",
"NNNNNNN   NNNNNNNNNNNN",
"NNNNNNNNNNNNNNNNNNNNNN",
"NNNNNNNNNNNNNNNNNNNNNN",
"NNNNNNNNNNNNNNNNNNNNNN"
};
