/* XPM */
const char *reload_xpm[] = {
/* width height ncolors chars_per_pixel */
"22 22 141 2",
/* colors */
"   c none",
" . c #AFAFAF",
" X c #192C0B",
" o c #3A924C",
" O c #A5A5A5",
" + c #A3A3A3",
" @ c #A1A1A1",
" # c #2A732F",
" $ c #55BD7A",
" % c #17320C",
" & c #8D8D8D",
" * c #898989",
" = c #296C27",
" - c #284919",
" ; c #50854A",
" : c #6FC386",
" > c #3D8F4B",
" , c #63C284",
" < c #818181",
" 1 c #DFF3DD",
" 2 c #797979",
" 3 c #DBF1D9",
" 4 c #757575",
" 5 c #2C813A",
" 6 c #717171",
" 7 c #6F6F6F",
" 8 c #6D6D6D",
" 9 c #1C4110",
" 0 c #1C3F10",
" q c #2F8B40",
" w c #696969",
" e c #142908",
" r c #305020",
" t c #575757",
" y c #161600",
" u c #319E52",
" i c #515151",
" p c #4D4D4D",
" a c #82CD91",
" s c #4B4B4B",
" d c #2F8F46",
" f c #E4F4E1",
" g c #474747",
" h c #454545",
" j c #32843F",
" k c #31843E",
" l c #434343",
" z c #414141",
" x c #33B364",
" c c #A3DAAE",
" v c #3B3B3B",
" b c #47B671",
" n c #46B670",
" m c #7DCB8F",
" M c #353535",
" N c #101800",
" B c #46914F",
" V c #215017",
" C c #2F2F2F",
" Z c #D4F4D4",
" A c #1D4613",
" S c #292929",
" D c #CEECCE",
" F c #64C280",
" G c #32A65C",
" H c #252525",
" J c #212121",
" K c #1F1F1F",
" L c #1D1D1D",
" P c #191919",
" I c #CACACA",
" U c #65C284",
" Y c #171717",
" T c #151515",
" R c #0D0D0D",
" E c #34B464",
" W c #0B0B0B",
" Q c #BCBCBC",
" ! c #070707",
" ~ c #030303",
" ^ c #010101",
" / c #B8E2BE",
" ( c #B2E0B8",
" ) c #848484",
" _ c #828282",
" ` c #2A6F2B",
" ' c #419652",
" ] c #121600",
" [ c #D8F0D6",
" { c #2D823B",
" } c #6AC684",
" | c #707070",
".  c #B0E1B5",
".. c #1B3E0F",
".X c #6A6A6A",
".o c #2FA057",
".O c #337F3A",
".+ c #5E5E5E",
".@ c #32A85D",
".# c #112405",
".$ c #505050",
".% c #256022",
".& c #4C4C4C",
".* c #484848",
".= c #477D40",
".- c #E0F3DD",
".; c #464646",
".: c #424242",
".> c #2F833C",
"., c #404040",
".< c #2C7F39",
".1 c #B9E4BD",
".2 c #3C3C3C",
".3 c #383838",
".4 c #213B14",
".5 c #366D2F",
".6 c #1A330D",
".7 c #225118",
".8 c #2E2E2E",
".9 c #2C2C2C",
".0 c #2A2A2A",
".q c #CBE9CB",
".w c #242424",
".e c #222222",
".r c #16310C",
".t c #1C1C1C",
".y c #1E4917",
".u c #1A1A1A",
".i c #417036",
".p c #142B0A",
".a c #141414",
".s c #378843",
".d c #121212",
".f c #141400",
".g c #BEE5C1",
".h c #407438",
".j c #0A0A0A",
".k c #080808",
".l c #63C385",
".z c #212106",
".x c #E2F4E1",
/* pixels */
"                 V.7 0 9.4.6.f              ",
"             A # U [.1 a >.=.i.y..          ",
"           A.@ 3 / n.> A.# ].z.f.y.p        ",
"           #.x ( b ;.f.f        .f.p N      ",
"         A U.q ,.O %                .p.f    ",
"         ` f c k.f                    .f    ",
"         =.-.l B e                          ",
".f.. - r.o.g $ j X y.f.f                    ",
".f.<.  1 Z : '.s m D 5.r         Y          ",
"  .f.5 G E u o F 5.%.f         @ g P        ",
"    .f.5 d x } 5.%.f         Q 8 ) h T      ",
"      .f.h q {.%.f         I 7.3.* &.& P    ",
"        .f.5.%.f         Q | M.e S p &.; T  ",
"          .f.f      .8 @ w h h.0 C.8.; 6.9.j",
"                         ~   4.2 i.w ^      ",
"                             * z t H        ",
"                             + v i.u        ",
"                           ..X l., !        ",
"                         . ).:.*.a          ",
"        .k.e W.t     2 . _.$.$.9 !          ",
"             K s.X < O.+.:.$ R              ",
"              .j.d P K J L                  "
};
