/* XPM */
const char *reset_xpm[] = {
/* width height ncolors chars_per_pixel */
"22 22 67 1",
/* colors */
"  c #000000",
". c #79D54B",
"X c #79B658",
"o c #9AC589",
"O c #5BC930",
"+ c #6FD63D",
"@ c #42A01E",
"# c #48B227",
"$ c #7FCC67",
"% c #3A8816",
"& c #51B929",
"* c #CDE2C1",
"= c #35691B",
"- c #122B06",
"; c #D4E4CB",
": c #E5EEDF",
"> c #15270C",
", c #234413",
"< c #13250A",
"1 c #173807",
"2 c #79BE53",
"3 c #469D24",
"4 c #0B1B05",
"5 c #72C24F",
"6 c #1C4508",
"7 c #CCE5C2",
"8 c #C8E1BE",
"9 c #070D04",
"0 c #87C86A",
"q c #060D03",
"w c #ECF3E8",
"e c #8AC963",
"r c #102806",
"t c #F5F9F4",
"y c #15260E",
"u c #13200C",
"i c #102009",
"p c #3FA21C",
"a c #53B529",
"s c #40A513",
"d c #478824",
"f c #88BE71",
"g c #38AA18",
"h c #275F0B",
"j c #34A814",
"k c #081204",
"l c #071003",
"z c #E4ECDF",
"x c #3F8222",
"c c #12230A",
"v c #2B6A0E",
"b c #47AB29",
"n c #91D56B",
"m c #275E0D",
"M c #4BB626",
"N c none",
"B c #3E8320",
"V c #0E2005",
"C c #0F1C09",
"Z c #5B923C",
"A c #C7E0BA",
"S c #41821F",
"D c #4AA721",
"F c #529033",
"G c #1C4408",
"H c #A7C49A",
"J c #020202",
/* pixels */
"NNNNNNNNNNNNNNNNNNNNNN",
"NNNNNNNNNNNNNNNNNNNNNN",
"NNNNNNNNNNNhhhhhNNNNNN",
"NNNNNNNNNhho*:*ohhNNNN",
"NNNNNNNhhtA2222n:ohNNN",
"NhNNNNht80DDppppbn: NN",
"NhhNNhteDpO++++Oapno N",
"Nh;hhtepO+a    v=apN N",
"Nh;zHe@+a rNNNNqVvSXoG",
"Nhw$5@+a NNNNNNNN46%NG",
"Nhwgj&3 NNNNNNNNNN-msG",
"Nh7#jM.GNNNNNNNNNNk1GN",
"NhfxdZBFGNNNNNNNNNlG N",
"Nh       JNNNNNNNNyGNN",
"NNNNNNNNNNNNNNNNNCG9NN",
"NNNNNNNNNNNNNNNNcGiNNN",
"NNNNNNNNNNNNNNN>,<NNNN",
"NNNNNNNNNNNNNNuG NNNNN",
"NNNNNNNNNNNN   NNNNNNN",
"NNNNNNNNNNNNNNNNNNNNNN",
"NNNNNNNNNNNNNNNNNNNNNN",
"NNNNNNNNNNNNNNNNNNNNNN"
};
