/* XPM */
const char *right1arrow_xpm[] = {
/* width height ncolors chars_per_pixel */
"22 22 43 1",
/* colors */
"  c #000000",
". c #AFAFAF",
"X c #ADADAD",
"o c #A5A5A5",
"O c #858585",
"+ c #838383",
"@ c #5D5D5D",
"# c #3F3F3F",
"$ c #E4E4E4",
"% c #313131",
"& c #E0E0E0",
"* c #2D2D2D",
"= c #DCDCDC",
"- c #1F1F1F",
"; c #1B1B1B",
": c #C4C4C4",
"> c #0D0D0D",
", c #090909",
"< c #9A9A9A",
"1 c #989898",
"2 c #929292",
"3 c #909090",
"4 c #8E8E8E",
"5 c #8A8A8A",
"6 c #888888",
"7 c #868686",
"8 c #7A7A7A",
"9 c #747474",
"0 c #707070",
"q c #6E6E6E",
"w c none",
"e c #EFEFEF",
"r c #3A3A3A",
"t c #323232",
"y c #282828",
"u c #242424",
"i c #161616",
"p c #C7C7C7",
"a c #C5C5C5",
"s c #121212",
"d c #C1C1C1",
"f c #B7B7B7",
"g c #040404",
/* pixels */
"wwwwwwwwwwwwwwwwwwwwww",
"wwwwwwwwwwwwwwwwwwwwww",
"wwwwwwttwwwwwwwwwwwwww",
"wwwwwwt@ wwwwwwwwwwwww",
"wwwwwwt:@ wwwwwwwwwwww",
"wwwwww%a$@ wwwwwwwwwww",
"wwwwww*fe=@ wwwwwwwwww",
"wwwwwwy.&f=@ wwwwwwwww",
"wwwwwwu.p<4=@ wwwwwwww",
"wwwwww-op164=@ wwwwwww",
"wwwwww;<XO+72d@ wwwwww",
"wwwwwwi3<++4X9r wwwwww",
"wwwwwwsO1+4X9r wwwwwww",
"wwwwww>854X9r wwwwwwww",
"wwwwww,8<X9r wwwwwwwww",
"wwwwwwg9<9r wwwwwwwwww",
"wwwwww 09r wwwwwwwwwww",
"wwwwww qr wwwwwwwwwwww",
"wwwwww # wwwwwwwwwwwww",
"wwwwww  wwwwwwwwwwwwww",
"wwwwwwwwwwwwwwwwwwwwww",
"wwwwwwwwwwwwwwwwwwwwww"
};
