/* XPM */
const char *save_xpm[] = {
/* width height ncolors chars_per_pixel */
"22 22 116 2",
/* colors */
"   c #000000",
" . c #A7A7A7",
" X c #9B9B9B",
" o c #919191",
" O c #8D8D8D",
" + c #8B8B8B",
" @ c #898989",
" # c #858585",
" $ c #838383",
" % c #818181",
" & c #7B7B7B",
" * c #797979",
" = c #777777",
" - c #757575",
" ; c #737373",
" : c #717171",
" > c #6F6F6F",
" , c #6D6D6D",
" < c #6B6B6B",
" 1 c #676767",
" 2 c #656565",
" 3 c #636363",
" 4 c #616161",
" 5 c #5F5F5F",
" 6 c #5B5B5B",
" 7 c #555555",
" 8 c #D8E6E6",
" 9 c #535353",
" 0 c #515151",
" q c #4F4F4F",
" w c #4D4D4D",
" e c #FEFEFE",
" r c #FCFCFC",
" t c #494949",
" y c #454545",
" u c #434343",
" i c #F4F4F4",
" p c #414141",
" a c #F2F2F2",
" s c #3F3F3F",
" d c #3D3D3D",
" f c #3B3B3B",
" g c #EAEAEA",
" h c #353535",
" j c #2F2F2F",
" k c #E0E0E0",
" l c #2B2B2B",
" z c #DADADA",
" x c #D6D6D6",
" c c #CECECE",
" v c #CACACA",
" b c #151515",
" n c #C4C4C4",
" m c #BEBEBE",
" M c #BCBCBC",
" N c #BABABA",
" B c #B8B8B8",
" V c #010101",
" C c #A8A8A8",
" Z c #9C9C9C",
" A c #9A9A9A",
" S c #989898",
" D c #969696",
" F c #949494",
" G c #929292",
" H c #909090",
" J c #8E8E8E",
" K c #8C8C8C",
" L c #8A8A8A",
" P c #888888",
" I c #848484",
" U c #828282",
" Y c #808080",
" T c #7C7C7C",
" R c #7A7A7A",
" E c #787878",
" W c #767676",
" Q c #747474",
" ! c #EFF0F0",
" ~ c #707070",
" ^ c #6E6E6E",
" / c #6C6C6C",
" ( c #6A6A6A",
" ) c #606060",
" _ c #5E5E5E",
" ` c #5C5C5C",
" ' c #5A5A5A",
" ] c #585858",
" [ c #565656",
" { c #545454",
" } c #505050",
" | c #4E4E4E",
".  c none",
".. c #4C4C4C",
".X c #4A4A4A",
".o c #F9F9F9",
".O c #464646",
".+ c #444444",
".@ c #424242",
".# c #404040",
".$ c #F1F1F1",
".% c #EFEFEF",
".& c #EDEDED",
".* c #3A3A3A",
".= c #383838",
".- c #E3E3E3",
".; c #DFDFDF",
".: c #CBCBCB",
".> c #C9C9C9",
"., c #C5C5C5",
".< c #C1C1C1",
".1 c #0C0C0C",
".2 c #BBBBBB",
".3 c #060606",
".4 c #040404",
".5 c #B3B3B3",
/* pixels */
". . . . .  <  . . . . . . . . . . . . . . . ",
". . . . .   .< s.X :. . . . . . . . . . . . ",
". . . .  , L.< ` 3 ` s } Q. . . . . . . . . ",
". . . .  u.<.< [. .; ` , ` s.O /. . . . . . ",
". . . . .4.< [ k. . . . .; ` 4 ` s { Q. . . ",
". . .  / X.< s e. . . . . . . .; ` _ =   6. ",
". . .  w.<.< [. . . . . . . .  e 8 [ W n  . ",
". . .  b.5 [ k. . . . . . . . .  [ & Q N t. ",
". .  < U.5 s !. . . . . . . . .o s * N.3. . ",
". .  w S A d / r. . . . . . . .; [ W.: d. . ",
". . .1 o F G T { s P. . . . .  [ E ; N '. . ",
".  / - L J H O + G Q 9 s L.  k s Q.2  . . . ",
". .@ I $ y.* [ + P # P I , ].# - = v j. . . ",
". .3 T ^ E g D.O.. 5 * U R E Q ~ < m |. . . ",
" < ( ; q Z. .$.% x $.+.O W : > < N.4. . . . ",
" l , 1.O i g z.-.& k Y 0 f.+ ` 1.:.@. . . . ",
" `   2 s a x x c., M { # % f ) ).2 '. . . . ",
".  <.O V.O . n M B L.O T K 9 9.2  . . . . . ",
". . . .  <.O  .O C.O # @ p 7 9.> h. . . . . ",
". . . . . . .  <.O  .O D.= 9 9 N t. . . . . ",
". . . . . . . . . .  <.O  .O 7.4. . . . . . ",
". . . . . . . . . . . . .  <   6. . . . . . "
};
