/* XPM */
const char * spec_xpm[] = {
/* columns rows colors chars-per-pixel */
"22 22 8 1",
"  c Gray100",
". c Gray76",
"X c Gray53",
"o c Gray36",
"O c Gray18",
"+ c Gray0",
"@ c None",
"# c Red",
/* pixels */
"@@@@@@@@@@@@@@@@@@@@@@",
"@@@@++++++++++@@@@@@@@",
"@@@@+       +O+@@@@@@@",
"@@@@+       +oO+@@@@@@",
"@@@@+       +XoO+@@@@@",
"@@@@+       +.XoO+@@@@",
"@@@@+       + .XoO+@@@",
"@@@@+       +++++++@@@",
"@@@@+             +@@@",
"@@@@+   ######    +@@@",
"@@@@+  ########   +@@@",
"@@@@+ ####   ##   +@@@",
"@@@@+ #####       +@@@",
"@@@@+  #######    +@@@",
"@@@@+     #####   +@@@",
"@@@@+ ###   ####  +@@@",
"@@@@+ ##########  +@@@",
"@@@@+   ######    +@@@",
"@@@@+             +@@@",
"@@@@+++++++++++++++@@@",
"@@@@@@@@@@@@@@@@@@@@@@",
"@@@@@@@@@@@@@@@@@@@@@@"
};
