/* XPM */
const char *spreadsheet_xpm[] = {
/* width height ncolors chars_per_pixel */
"16 16 153 2",
/* colors */
"   c #DFDFE8",
" . c #A7A7A7",
" X c #C7C7CD",
" o c #D5D5DE",
" O c #A3A3A3",
" + c #A1A1A1",
" @ c #D8D2D7",
" # c #9F9F9F",
" $ c #9D9D9D",
" % c #9B9B9B",
" & c #C9C8DC",
" * c #CAC9D3",
" = c #73C47D",
" - c #D4E6D6",
" ; c #B5B5BB",
" : c #939393",
" > c #C3C3CC",
" , c #CFE4D1",
" < c #98AD9B",
" 1 c #9C9CA9",
" 2 c #BFBFC8",
" 3 c #848384",
" 4 c #838383",
" 5 c #818181",
" 6 c #7F7F7F",
" 7 c #AFAFB8",
" 8 c #ADADB6",
" 9 c #DEDEE6",
" 0 c #BABABF",
" q c #719F77",
" w c #B8B8BD",
" e c #BABAC2",
" r c #B8B8C0",
" t c #A2A1B1",
" y c #C9C9CA",
" u c #B0B0B8",
" i c #9494AD",
" p c #8A8A8C",
" a c #A5A5B7",
" s c #B8B8C3",
" d c #EEF2EE",
" f c #F0EEF0",
" g c #EDECED",
" h c #ECEAEC",
" j c #EBE8EB",
" k c #E4E4E4",
" l c #E2E2E2",
" z c #E1DCE1",
" x c #A6A6B1",
" c c #DBDBE5",
" v c #DEDEDE",
" b c #DDDCDD",
" n c #D9D9E3",
" m c #D4D4D4",
" M c #D2D2D2",
" N c #B9B9C0",
" B c #CCCCCC",
" V c #CACACA",
" C c #B6B5BD",
" Z c #EAEAF0",
" A c #C8C8C8",
" S c #E8E8EE",
" D c #C6C6C6",
" F c #C4C4C4",
" G c #CDCDDA",
" H c #BBBBC5",
" J c #B8B8B8",
" K c #83AB87",
" L c #E0E0E9",
" P c #DEDEE7",
" I c #E2DFE1",
" U c #E2DDE1",
" Y c #DCDCE5",
" T c #C8C8CE",
" R c #DED9DD",
" E c #D6D6DF",
" W c #DBD5DA",
" Q c #A2A2A2",
" ! c #A0A0A0",
" ~ c #BEBEC4",
" ^ c #9C9C9C",
" / c #D7E9D9",
" ( c #EDEDF2",
" ) c #B6B6BC",
" _ c #949494",
" ` c #D2E5D4",
" ' c #D4D4E0",
" ] c #BCBCC5",
" [ c #888688",
" { c #B8B8C1",
" } c #868686",
" | c #B6B6BF",
".  c #848484",
".. c #B4B4BD",
".X c #828282",
".o c #808080",
".O c #AEAEB7",
".+ c #E1E1E9",
".@ c #C6C6D5",
".# c #D5D4E7",
".$ c #E2F2E3",
".% c #7CC685",
".& c #F0F0F4",
".* c #EEEEF2",
".= c #D7D7E2",
".- c #C3C3CB",
".; c #D0DAD1",
".: c #CCD6CD",
".> c #8B878A",
"., c #CECECF",
".< c #B9B9C1",
".1 c #B7B7BF",
".2 c #98BD9D",
".3 c none",
".4 c #B5B5BD",
".5 c #B1B1B9",
".6 c #E6E6ED",
".7 c #ACACBE",
".8 c #E4E4EB",
".9 c #E0E0E7",
".0 c #8AB18F",
".q c #F3F3F3",
".w c #C9C9D7",
".e c #89CF91",
".r c #EDEDED",
".t c #ECE9EC",
".y c #BEBED6",
".u c #83C98B",
".i c #ADADB8",
".p c #7BA580",
".a c #E2E1E2",
".s c #E1E1E1",
".d c #E2DFE2",
".f c #A7A7B2",
".g c #DADAE4",
".h c #DBDBDB",
".j c #D9D9D9",
".k c #D7D7D7",
".l c #BFBFD0",
".z c #D2D2DC",
".x c #D5D5D5",
".c c #D1D1D1",
".v c #BCBCC3",
".b c #CFCFCF",
".n c #CDCDCD",
".m c #CBCBCB",
".M c #C7C7C7",
".N c #C3C3C3",
".B c #BBBBBB",
".V c #848485",
".C c #808081",
".Z c #AEAEB8",
".A c None",
/* pixels */
".3.3.3.3.@.@.@.@.@.@.@.@ i.3.3.3",
" k v.h.x.,.b B.M y Z P L.@ i.3.3",
" l.q I z R W @ b ! (.+ L.@.w i.3",
".s.d <.0 K.p q.: [.*.8 L i i i i",
" v U.2.e.u.% =.$.>.*.6 L c G.l i",
".j.a.; / - ` , d 3 ~ ] { x t 1 i",
" m.r g f h.t j.k.V *.# &.7.y a i",
".c V O.B A #.M # 5 0 C.Z.f.i x i",
".b Q _ ^ ! : ! :.  X n.z 2 ' s i",
".n D + J F $.N $ 5 ;.<.4.O.. 8 i",
" B Q _ ^ ! : ! :.X T 9 E > n H i",
".m D + J F $.N $ 6 ) e.1 u |.O i",
" M Q _ % # : # : 5 T.9 o.-.g ] i",
" . : 5 }.C.o.o 4 p w.v N.5 r 7 i",
".3.3.3.3.@.& S S.6.8 L   Y.g.= i",
".3.3.3.3 i i i i i i i i i i i i"
};
