/* XPM */
const char *today_xpm[] = {
/* width height ncolors chars_per_pixel */
"22 22 121 2",
/* colors */
"   c none",
" . c #FAF7F2",
" X c #0000C0",
" o c #A8754F",
" O c #0000D7",
" + c #B9B6B2",
" @ c #FBF9F6",
" # c #0000EE",
" $ c #BCBAB8",
" % c #BBBAB7",
" & c #FEFDFC",
" * c #00009B",
" = c #824447",
" - c #F7F2EB",
" ; c #0000B2",
" : c #0000C9",
" > c #CF8039",
" , c #F9F6F0",
" < c #00008A",
" 1 c #F8F4EF",
" 2 c #0000E0",
" 3 c #BAB7B2",
" 4 c #0000A1",
" 5 c #5A1E08",
" 6 c #FBF8F5",
" 7 c #0000F7",
" 8 c #FAF8F4",
" 9 c #00008D",
" 0 c #0000B8",
" q c #FDFCFA",
" w c #0000CF",
" e c #0000E6",
" r c #BCBBBA",
" t c #0000FD",
" y c #000093",
" u c #F9F5EF",
" i c #C96A11",
" p c #0000AA",
" a c #FAF7F3",
" s c #0000C1",
" d c #C67C3C",
" f c #D9B9A1",
" g c #BAB8B4",
" h c #FDFBF9",
" j c #FCFBF8",
" k c #FBF9F7",
" l c #0000EF",
" z c #F0E1D5",
" x c #BDBCBA",
" c c #0000B0",
" v c #BCBAB9",
" b c #BBBAB8",
" n c #FDFDFC",
" m c #00009C",
" M c #0000C7",
" N c #0000B3",
" B c #0000DE",
" V c #692201",
" C c #0000F5",
" Z c #FAF6F2",
" A c #F9F6F1",
" S c #BAB7B3",
" D c #0000A2",
" F c #FCFAF7",
" G c #A0A0A0",
" H c #0000B9",
" J c #BBB9B7",
" K c #BAB9B6",
" L c #FDFCFB",
" P c #0000D0",
" I c #722909",
" U c #BDBDBC",
" Y c #0000E7",
" T c #AE5005",
" R c #D69861",
" E c #905E65",
" W c #000094",
" Q c #F9F5F0",
" ! c #F8F5EF",
" ~ c #B75707",
" ^ c #0000AB",
" / c #0000D6",
" ( c #B9B6B1",
" ) c #FBF9F5",
" _ c #0000C2",
" ` c #0000ED",
" ' c #BAB8B5",
" ] c #0000D9",
" [ c #FDFBFA",
" { c #FCFBF9",
" } c #00009A",
" | c #7F2D0B",
".  c #93542F",
".. c #752701",
".X c #BDBCBB",
".o c none",
".O c #0000C8",
".+ c #F8F4EE",
".@ c #983D02",
".# c #722501",
".$ c #0000DF",
".% c #E3C9B5",
".& c #FBF8F4",
".* c #0000F6",
".= c #F9F6F2",
".- c #00008C",
".; c #2A2A2A",
".: c #BAB7B4",
".> c #0000A3",
"., c #FCFAF8",
".< c #0000BA",
".1 c #BDBBBA",
".2 c #BCBBB9",
".3 c #0000D1",
".4 c #0000FC",
".5 c #000092",
".6 c #F8F3ED",
".7 c #0000E8",
".8 c #F7F3EC",
".9 c #0000A9",
".0 c #0000FF",
/* pixels */
".o.o.o.o.o.o.o.o.o.o.o.o.o.o.o.o.o.o.o.o.o.o",
".o                                  .;.o.o.o",
".o  .0.0 7 l.7 2 ].3 : _.< N ^.> m W 9  .o.o",
".o  .0 t.* # Y.$ O P.O s H ; p D * y.- G  .o",
".o  .0.4 C ` e B / w M X 0 c.9 4 }.5 < G  .o",
".o   j { q.X L L q {.2 F @ 6 8 '.= Q u G  .o",
".o   { q L U & n L q r., k ).& ' Z A u G  .o",
".o  .1.X U.  o.  I 5.. v $ % J ' g.: S G  .o",
".o   [ L & E z.% f.@.. j F @ 6 ' . A Q G  .o",
".o   h L n =.% R d T..., F @ 6 ' . A Q G  .o",
".o   { q L =.% > i ~.#., k ).& ' Z A u G  .o",
".o  .2 r x = | | | | V $ % J K '.: S 3 G  .o",
".o   F j {.1 [ h { j $ k @ 6 a g A Q 1 G  .o",
".o   k F., v j.,., F b @ 6 8 a.: A Q.+ G  .o",
".o   @ @ k $ F F k @ % 6 8 a ..: Q !.+ G  .o",
".o   J J % % % % % J J K ' g.: S 3 ( ( G  .o",
".o   a 8.& J 6 6.& 8 ' a . A , S 1.+.6 G  .o",
".o   . a a ' a a a a g Z A Q Q +.+.6.8 G  .o",
".o   A.= Z g . . Z.=.: A Q u 1 (.6.8 - G  .o",
".o.o   G G G G G G G G G G G G G G G G G  .o",
".o.o.o                                    .o",
".o.o.o.o.o.o.o.o.o.o.o.o.o.o.o.o.o.o.o.o.o.o"
};
