/* XPM */
const char *up_xpm[] = {
/* width height ncolors chars_per_pixel */
"22 22 100 2",
/* colors */
"   c none",
" . c #05101C",
" X c #0C3651",
" o c #1192B2",
" O c #15C1DA",
" + c #32AFCF",
" @ c #25AECC",
" # c #294B6A",
" $ c #46D6DF",
" % c #17A9C8",
" & c #1CA2C3",
" * c #0F4364",
" = c #83A7C2",
" - c #0E97BF",
" ; c #040D17",
" : c #34B2CD",
" > c #6F9AB8",
" , c #7495B3",
" < c #107EA3",
" 1 c #59C3DA",
" 2 c #07182A",
" 3 c #2D6284",
" 4 c #99D3E4",
" 5 c #1096BD",
" 6 c #05111E",
" 7 c #CBEDF4",
" 8 c #CCEBF5",
" 9 c #0F5F84",
" 0 c #15C2DC",
" q c #3F9DC0",
" w c #43D5DE",
" e c #0F9EC2",
" r c #DDEFF8",
" t c #13678E",
" y c #FDFCFD",
" u c #11658C",
" i c #FDFAFD",
" p c #26C3D5",
" a c #050E1A",
" s c #118EB0",
" d c #48DFE9",
" f c #061221",
" g c #2C5371",
" h c #19B3CE",
" j c #40A2C3",
" k c #17A4C2",
" l c #81C9DB",
" z c #96D8E9",
" x c #136890",
" c c #A9CDDE",
" v c #98CFE1",
" b c #819EBA",
" n c #050F1C",
" m c #1191B2",
" M c #7C9AB5",
" N c #030810",
" B c #1CB2CD",
" V c #107093",
" C c #25678A",
" Z c #DFEFF8",
" A c #106589",
" S c #105C7F",
" D c #15BDD6",
" F c #7BC5DE",
" G c #105375",
" H c #234760",
" J c #10A2C7",
" K c #E4F4F9",
" L c #0EA0C5",
" P c #64B6D1",
" I c #809FBB",
" U c #35566E",
" Y c #79CFE2",
" T c #040913",
" R c #020207",
" E c #A8E1EF",
" W c #3CD7E1",
" Q c #107195",
" ! c #061625",
" ~ c #116182",
" ^ c #C4EAF3",
" / c #71D1E0",
" ( c #BCDEEB",
" ) c #17ABD0",
" _ c #1191B3",
" ` c #DCEDF3",
" ' c #1397B8",
" ] c #051320",
" [ c #106187",
" { c #20C2D5",
" } c #040A15",
" | c #14B5D3",
".  c #010308",
".. c #1197B9",
".X c #486789",
".o c #E1F0F4",
".O c #061727",
".+ c #0D3D5C",
".@ c #21CCDC",
".# c #050405",
/* pixels */
"                                            ",
"                                            ",
"                                            ",
"                     X T                    ",
"                   X , A a                  ",
"                 X = r k A n                ",
"               X M i (.@ J A .              ",
"             X b y ` Y 0 W B A n            ",
"           X I y.o / h L 0 d & A n          ",
"         X > Z c 1 % e - ) O W < A }        ",
"       X #.X 3 Q @ e - - | o V S G.+ T      ",
"     X.+.+.+.+.+ q : e 5 p o.+.+.+.+.+ N    ",
"              .# v z +.. $ t 2              ",
"               U K ^ l s w x !              ",
"               H i 7 4 m $ x !              ",
"               X i E F _ { u !              ",
"               X 8 P j ' D ~.O              ",
"               X g C 9 [ [ * 6              ",
"              .  a ] f ] ] ; R              ",
"                                            ",
"                                            ",
"                                            "
};
