/* XPM */
const char *up1arrow_xpm[] = {
/* width height ncolors chars_per_pixel */
"22 22 43 1",
/* colors */
"  c #000000",
". c #AFAFAF",
"X c #ADADAD",
"o c #A5A5A5",
"O c #858585",
"+ c #838383",
"@ c #5D5D5D",
"# c #3F3F3F",
"$ c #E4E4E4",
"% c #313131",
"& c #E0E0E0",
"* c #2D2D2D",
"= c #DCDCDC",
"- c #1F1F1F",
"; c #1B1B1B",
": c #C4C4C4",
"> c #0D0D0D",
", c #090909",
"< c #9A9A9A",
"1 c #989898",
"2 c #929292",
"3 c #909090",
"4 c #8E8E8E",
"5 c #8A8A8A",
"6 c #888888",
"7 c #868686",
"8 c #7A7A7A",
"9 c #747474",
"0 c #707070",
"q c #6E6E6E",
"w c none",
"e c #EFEFEF",
"r c #3A3A3A",
"t c #323232",
"y c #282828",
"u c #242424",
"i c #161616",
"p c #C7C7C7",
"a c #C5C5C5",
"s c #121212",
"d c #C1C1C1",
"f c #B7B7B7",
"g c #040404",
/* pixels */
"wwwwwwwwwwwwwwwwwwwwww",
"wwwwwwwwwwwwwwwwwwwwww",
"wwwwwwwwwwwwwwwwwwwwww",
"wwwwwwwwwwwwwwwwwwwwww",
"wwwwwwwwwwwwwwwwwwwwww",
"wwwwwwwwwwwwwwwwwwwwww",
"wwwwwwwwww  wwwwwwwwww",
"wwwwwwwww @r wwwwwwwww",
"wwwwwwww @d9r wwwwwwww",
"wwwwwww @=2X9r wwwwwww",
"wwwwww @=474X9r wwwwww",
"wwwww @=46++4X9r wwwww",
"wwww @=f<1O++4X9r wwww",
"www @$e&ppX<15<<9r www",
"wwt@:af..o<3O8890q# ww",
"wwttt%*yu-;is>,g    ww",
"wwwwwwwwwwwwwwwwwwwwww",
"wwwwwwwwwwwwwwwwwwwwww",
"wwwwwwwwwwwwwwwwwwwwww",
"wwwwwwwwwwwwwwwwwwwwww",
"wwwwwwwwwwwwwwwwwwwwww",
"wwwwwwwwwwwwwwwwwwwwww"
};
