/* XPM */
const char *zoomin_xpm[] = {
/* width height ncolors chars_per_pixel */
"22 22 114 2",
/* colors */
"   c #000000",
" . c #ABABAB",
" X c #707071",
" o c #A7E5EC",
" O c #A5E1EA",
" + c #ECFBFB",
" @ c #EAF9F9",
" # c #99DEE8",
" $ c #99DCE8",
" % c #B6BDBC",
" & c #AFE6ED",
" * c #D2F1F5",
" = c #DEEBED",
" - c #ABE0E9",
" ; c #C7EEF4",
" : c #B5D1D5",
" > c #95D5DD",
" , c #46A5AD",
" < c #A4DCE5",
" 1 c #404041",
" 2 c #E0F3F5",
" 3 c #B5E7EF",
" 4 c #82D9E1",
" 5 c #CBF1F4",
" 6 c #EDFCFB",
" 7 c #DFF3F7",
" 8 c #B2E7EF",
" 9 c #B3E0E6",
" 0 c #86D4DE",
" q c #E8F8F9",
" w c #6ABDC9",
" e c #0CFDFA",
" r c #95DBE6",
" t c #7ACAD2",
" y c #83D6DE",
" u c #B9C2C4",
" i c #E5F6F9",
" p c #66BDC8",
" a c #4BACB4",
" s c #7F8281",
" d c #84DAE2",
" f c #50C8D3",
" g c #D8E3E2",
" h c #DDF2F4",
" j c #D2DDDC",
" k c #D3EFF4",
" l c #AEE2EA",
" z c #E9F7F9",
" x c #999B9A",
" c c #BAEBEF",
" v c #AEE6ED",
" b c #ACE4EB",
" n c #46A3AB",
" m c #E6F7F9",
" M c #7F8180",
" N c #409FA8",
" B c #84CED7",
" V c #DFF3F5",
" C c #B2E5ED",
" Z c #A6E4EB",
" A c #81D5E1",
" S c #74D0DE",
" D c #98DDE7",
" F c #0AE1DF",
" G c #D9EFF2",
" H c #C0E0E3",
" J c #AEB6B7",
" K c #56ADB6",
" L c #3F3F40",
" P c #E1F4F6",
" I c #79CAD5",
" U c #9DD5DE",
" Y c #D5F1F4",
" T c #8BD5E0",
" R c #76D1DF",
" E c #9FDBE3",
" W c #62BFC8",
" Q c #D1DBDC",
" ! c #56B8C6",
" ~ c #57B5BD",
" ^ c #BCC3C4",
" / c #65C1CE",
" ( c #E7F7F8",
" ) c #DBF4F6",
" _ c none",
" ` c #92D8E3",
" ' c #ABE4EB",
" ] c #DBEBEC",
" [ c #8BD4DC",
" { c #C2ECF1",
" } c #CBE2E6",
" | c #4EC3CE",
".  c #91DAE5",
".. c #808382",
".X c #7E8180",
".o c #A4DCE7",
".O c #C4E9EC",
".+ c #C8CECF",
".@ c #DEF3F5",
".# c #B3E7EF",
".$ c #C7EBF2",
".% c #73D0DE",
".& c #BBEAF0",
".* c #46A7B5",
".= c #ADE5EC",
".- c #141414",
".; c #B8DFE3",
".: c #CEEEF2",
".> c #121212",
"., c #4DB5BF",
".< c #4BB3BD",
".1 c #06AFB1",
".2 c #D8F3F5",
".3 c #85D8E2",
/* pixels */
" _ _ _ _ _.>.>.>.>.> _ _ _ _ _ _ _ _ _ _ _ _",
" _ _ _.>.> x J u J x.>.> _ _ _ _ _ _ _ _ _ _",
" _ _.>.X Q ] 7 ) *.: P M.> _ _ _ _ _ _ _ _ _",
" _.>.X g q m 5 ; 3.o C 2 s.> _ _ _ _ _ _ _ _",
" _.> j @ 6 +.2 { b > B - 2.> _ _ _ _ _ _ _ _",
".> x = m + ( Y.& o ` I t 8 x.> _ _ _ _ _ _ _",
".> % z 5.2 Y.$.= # A / W O :.> _ _ _ _ _ _ _",
".>.+ i.O { c.= D.3.% ! ~ '.;.> _ _ _ _ _ _ _",
".> ^ G 9 v Z $.3 R |., a r :.> _ _ _ _ _ _ _",
".> x k U T.  4 S f.< n w.# x.> _ _ _ _ _ _ _",
" _.> } & B I / !., N.* d V.> _ _ _ _ _ _ _ _",
" _.>.. 2 < B W K , p y P x.> _ _ _ _ _ _ _ _",
" _ _.>.X h l E [ 0 l.@ x.> . e _ _ _ _ _ _ _",
" _ _ _.>.- x : H : x.>.> L F ..> _ _ _ _ _ _",
" _ _ _ _ _.-.>.>.>.> _ _.1 1 X ..> _ _ _ _ _",
" _ _ _ _ _ _ _ _ _ _ _ _ _.> 1 X ..> _ _ _ _",
" _ _ _ _ _ _ _ _ _ _ _ _ _ _.> 1 X ..> _ _ _",
" _ _   _ _ _ _ _ _ _ _ _ _ _ _.> 1 X ..> _ _",
" _ _   _ _ _ _ _ _ _ _ _ _ _ _ _.> 1 X ..> _",
"           _ _ _ _ _ _ _ _ _ _ _ _.> 1 X.> _",
" _ _   _ _ _ _ _ _ _ _ _ _ _ _ _ _ _.>.> _ _",
" _ _   _ _ _ _ _ _ _ _ _ _ _ _ _ _ _ _ _ _ _"
};
